<?xml version="1.0" encoding="utf-8"?>
<!-- Generator: Adobe Illustrator 16.0.0, SVG Export Plug-In . SVG Version: 6.00 Build 0)  -->
<!DOCTYPE svg PUBLIC "-//W3C//DTD SVG 1.1//EN" "http://www.w3.org/Graphics/SVG/1.1/DTD/svg11.dtd">
<svg version="1.1" id="Layer_1" xmlns="http://www.w3.org/2000/svg" xmlns:xlink="http://www.w3.org/1999/xlink" x="0px" y="0px"
	 width="205.75px" height="70.25px" viewBox="0 0 205.75 70.25" enable-background="new 0 0 205.75 70.25" xml:space="preserve">
<path fill="#1A459C" d="M200.25,35.375c0,9.803-6.996,17.75-15.625,17.75h-117.5c-8.629,0-15.625-7.947-15.625-17.75l0,0
	c0-9.803,6.996-17.75,15.625-17.75h117.5C193.254,17.625,200.25,25.572,200.25,35.375L200.25,35.375z"/>
<circle fill="#1FBBB1" cx="39.625" cy="35.375" r="32"/>
<polygon fill="#FFFFFF" points="32.225,16.641 32.241,44.836 22.017,51.075 21.865,23.708 "/>
<polygon fill="#FFFFFF" points="44.366,23.96 44.214,51.327 33.99,45.087 34.006,16.892 "/>
<polygon fill="#FFFFFF" points="56.1,17.392 56.116,45.587 45.892,51.827 45.74,24.46 "/>
</svg>
