<?xml version="1.0" encoding="utf-8"?>
<!-- Generator: Adobe Illustrator 16.0.0, SVG Export Plug-In . SVG Version: 6.00 Build 0)  -->
<!DOCTYPE svg PUBLIC "-//W3C//DTD SVG 1.1//EN" "http://www.w3.org/Graphics/SVG/1.1/DTD/svg11.dtd">
<svg version="1.1" id="Layer_1" xmlns="http://www.w3.org/2000/svg" xmlns:xlink="http://www.w3.org/1999/xlink" x="0px" y="0px"
	 width="205.75px" height="70.25px" viewBox="0 0 205.75 70.25" enable-background="new 0 0 205.75 70.25" xml:space="preserve">
<path fill="#1A459C" d="M200.25,35.375c0,9.803-6.996,17.75-15.625,17.75h-117.5c-8.629,0-15.625-7.947-15.625-17.75l0,0
	c0-9.803,6.996-17.75,15.625-17.75h117.5C193.254,17.625,200.25,25.572,200.25,35.375L200.25,35.375z"/>
<circle fill="#1FBBB1" cx="39.844" cy="35.375" r="32"/>
<g>
	<polygon fill="#FFFFFF" points="19.143,29.228 19.143,49.25 60.936,49.25 60.936,28.572 39.479,40.987 	"/>
	<path fill="#FFFFFF" d="M39.824,37.933c1.827,0,21.294-12.341,21.294-13.189c0-2.37-2.463-2.384-2.463-2.384H20.914
		c0,0-2.344,0.312-2.344,2.344C18.57,25.89,37.758,37.933,39.824,37.933z"/>
</g>
</svg>
