<?xml version="1.0" encoding="utf-8"?>
<!-- Generator: Adobe Illustrator 16.0.0, SVG Export Plug-In . SVG Version: 6.00 Build 0)  -->
<!DOCTYPE svg PUBLIC "-//W3C//DTD SVG 1.1//EN" "http://www.w3.org/Graphics/SVG/1.1/DTD/svg11.dtd">
<svg version="1.1" id="Layer_1" xmlns="http://www.w3.org/2000/svg" xmlns:xlink="http://www.w3.org/1999/xlink" x="0px" y="0px"
	 width="280px" height="301.383px" viewBox="0 0 280 301.383" enable-background="new 0 0 280 301.383" xml:space="preserve">
<g>
	<path fill-rule="evenodd" clip-rule="evenodd" fill="#7FC067" d="M135.179,18.936c3.038,0,6.075,0,9.113,0
		c0.198,0.028,0.395,0.076,0.593,0.083c5.415,0.195,10.796,0.734,16.139,1.616c12.924,2.134,25.265,6.097,36.981,11.958
		c18.47,9.24,34.023,22.056,46.575,38.441c17.421,22.744,26.84,48.488,28.535,77.077c0.055,0.933-0.041,1.889,0.269,2.8
		c0,3.341,0,6.682,0,10.024c-0.233,0.09-0.142,0.296-0.149,0.456c-0.266,6.83-1.016,13.606-2.257,20.331
		c-2.296,12.446-6.215,24.358-11.787,35.717c-7.499,15.285-17.463,28.753-29.966,40.318c-13.931,12.883-29.856,22.44-47.853,28.491
		c-14.961,5.031-30.336,7.236-46.115,6.694c-6.991-0.24-13.917-1.01-20.773-2.362c-12.117-2.388-23.667-6.42-34.642-12.093
		c-14.051-7.262-26.413-16.739-37.125-28.364c-10.67-11.58-19.091-24.624-25.282-39.104c-6.297-14.731-9.929-30.094-10.915-46.083
		c-0.085-1.384-0.187-2.769-0.28-4.153c0-3.189,0-6.379,0-9.568c0.031-0.273,0.081-0.547,0.091-0.823
		c0.196-5.208,0.68-10.393,1.462-15.545c1.68-11.062,4.615-21.778,8.886-32.123C23.844,85.367,34.09,70.08,47.487,56.912
		c10.626-10.445,22.65-18.905,36.103-25.31c15.042-7.162,30.88-11.307,47.513-12.385C132.462,19.129,133.821,19.029,135.179,18.936z
		"/>
</g>
<path fill-rule="evenodd" clip-rule="evenodd" fill="#7FC067" d="M64.651,155.439c13.866,6.744,26.823,14.884,38.387,25.137
	c9.158,8.12,17.103,17.256,23.016,28.041c2.753,5.021,5.162,10.211,6.29,15.861c1.103,5.525,1.688,11.136,2.244,16.742
	c0.092,0.933,0.325,1.338,1.347,1.273c1.474-0.093,2.961-0.083,4.437-0.002c0.943,0.051,1.15-0.359,1.164-1.179
	c0.12-7.321-1.515-14.184-5.341-20.468c-0.344-0.565-0.396-1.042-0.246-1.676c1.465-6.174,2.197-12.421,1.809-18.779
	c-0.525-8.601-3.034-16.545-7.863-23.705c-4.908-7.276-11.466-12.594-19.124-16.877c-13.119-7.337-26.723-13.477-41.042-18.02
	c-11.017-3.495-22.216-6.204-33.708-7.622c-1.16-0.143-1.114,0.193-0.784,1.035c0.925,2.352,2.156,4.545,3.444,6.706
	c6.125,10.274,13.001,20.048,19.931,29.782c3.012,4.23,5.846,8.602,9.279,12.517c2.979,3.397,6.135,6.633,9.389,9.771
	c6.956,6.708,14.372,12.838,22.694,17.794c6.588,3.924,13.458,7.178,21.158,8.287c1.338,0.193,1.449,0.127,1.428-1.259
	c-0.046-3.118-0.801-6.084-2.03-8.937c-2.986-6.932-7.617-12.732-12.66-18.227c-9.15-9.968-19.554-18.518-30.367-26.586
	c-4.29-3.201-8.697-6.242-13.051-9.356C64.519,155.608,64.584,155.524,64.651,155.439z"/>
<path fill-rule="evenodd" clip-rule="evenodd" fill="#7FC067" d="M214.635,160.251c0.068,0.086,0.137,0.171,0.205,0.257
	c-0.391,0.274-0.772,0.563-1.175,0.82c-6.076,3.861-11.983,7.964-17.687,12.354c-10.422,8.021-20.231,16.695-28.422,27.057
	c-4.758,6.02-8.799,12.459-11.305,19.776c-0.309,0.9-0.184,1.141,0.811,1.129c5.144-0.059,10.048-1.263,14.827-3.037
	c11.232-4.169,20.811-10.954,29.619-18.918c9.957-9.002,18.581-19.193,26.115-30.26c6.744-9.906,13.109-20.07,19.641-30.121
	c0.103-0.159,0.267-0.307,0.076-0.557c-0.648,0.032-1.324,0.044-1.995,0.104c-1.711,0.149-3.425,0.288-5.131,0.487
	c-14.799,1.731-29.323,4.722-43.406,9.654c-11.062,3.874-21.584,8.831-30.969,15.96c-12.116,9.204-20.53,20.804-23.184,36.094
	c-0.645,3.715-0.932,7.38,0.026,11.147c1.057,4.16,1.987,8.348,2.301,12.689c0.551,7.625,2.417,14.972,5.963,21.81
	c3.719,7.17,9.064,12.57,16.981,14.921c9.54,2.832,19.201,3.028,28.923,0.947c8.679-1.857,16.341-5.979,23.534-10.939
	c17.596-12.133,29.695-28.581,37.311-48.434c5.163-13.458,7.347-27.515,8.054-41.818c0.691-13.985-0.857-27.774-4.463-41.308
	c-5.412-20.311-15.199-38.175-30.294-52.908c-13.552-13.227-29.293-23.13-46.953-29.989c-20.498-7.961-41.583-10.383-63.312-6.774
	c-15.018,2.494-29.251,7.321-42.635,14.58c-20.702,11.228-37.02,26.963-48.187,47.758c-11.718,21.822-17.164,45.275-17.188,69.992
	c-0.005,5.834,0.502,11.691,2.068,17.333c4.368,15.739,11.196,30.386,20.135,44.046c7.32,11.185,16.016,21.142,26.517,29.474
	c12.525,9.938,26.839,16.297,42.021,20.846c9.943,2.979,20.15,4.593,30.503,5.334c6.789,0.486,13.574,0.524,20.368,0.19
	c0.706-0.035,0.977-0.232,0.979-0.969c0.001-1.077,0.098-2.156,0.215-3.228c0.089-0.812-0.144-0.988-0.981-0.899
	c-6.447,0.677-12.909,0.921-19.394,0.646c-8.004-0.34-15.911-1.331-23.731-3.093c-10.922-2.461-20.873-7.131-30.387-12.921
	c-14.893-9.062-27.863-20.199-37.979-34.505c-8.942-12.647-15.155-26.591-19.848-41.289c-2.933-9.186-4.99-18.492-4.873-28.198
	c0.105-8.758,1.271-17.375,3.625-25.798c8.024-28.707,23.463-52.663,46.451-71.654C78.865,49.4,90.528,42.813,103.722,39.35
	c13.2-3.464,26.66-5.075,40.336-4.735c9.393,0.233,18.609,1.55,27.669,4.033c12.958,3.549,24.732,9.608,36.041,16.728
	c7.477,4.707,14.592,9.807,20.457,16.5c15.767,17.994,26.489,38.567,31.571,61.983c2.091,9.632,2.748,19.398,1.445,29.2
	c-1.738,13.078-5.089,25.757-10.023,37.999c-5.706,14.156-13.182,27.247-23.557,38.551c-6.561,7.148-14.033,13.063-23.125,16.71
	c-9.184,3.685-18.63,5.172-28.397,2.895c-11.762-2.743-19.907-10.058-25.381-20.594c-0.825-1.588-1.893-3.144-2.078-4.94
	c-0.421-4.072-0.363-8.172,0.757-12.136c1.742-6.162,5.093-11.52,8.814-16.645c6.822-9.397,15.171-17.289,24.3-24.393
	C192.58,172.701,203.35,166.066,214.635,160.251z"/>
<path fill-rule="evenodd" clip-rule="evenodd" fill="#7FC067" d="M136.514,185.872c0.568,0.061,0.896-0.266,1.259-0.475
	c2.797-1.611,5.221-3.686,7.376-6.073c5.078-5.627,8.236-12.314,10.57-19.43c3.106-9.469,4.572-19.241,5.349-29.149
	c0.926-11.815,0.494-23.556-1.562-35.232c-3.029-17.204-8.367-33.669-15.843-49.448c-1.192-2.516-2.428-5.012-3.919-7.532
	c-0.314,0.527-0.567,0.927-0.795,1.34c-2.671,4.841-4.77,9.935-6.434,15.193c-5.903,18.651-8.484,37.832-8.909,57.335
	c-0.195,8.958,0.082,17.905,1.162,26.81c0.796,6.554,1.979,13.029,4.315,19.236c1.385,3.681,3.035,7.224,5.876,10.058
	c1.418,1.414,1.427,1.401,2.044-0.535c4.179-13.112,5.99-26.62,6.673-40.307c0.343-6.868,0.355-13.739,0.102-20.615
	c-0.328-8.872-1.014-17.71-2.15-26.514c-0.275-2.133-0.562-4.264-0.854-6.482c0.467,0.272,0.463,0.655,0.557,0.984
	c3.334,11.704,4.997,23.672,5.445,35.805c0.396,10.719-0.068,21.412-1.327,32.074c-1.402,11.878-3.582,23.601-6.717,35.143
	C138.025,180.661,137.26,183.249,136.514,185.872z"/>
<path fill-rule="evenodd" clip-rule="evenodd" fill="#FEFFFE" d="M214.635,160.251c-11.285,5.815-22.055,12.45-32.083,20.252
	c-9.129,7.104-17.478,14.996-24.3,24.393c-3.721,5.125-7.072,10.483-8.814,16.645c-1.121,3.964-1.179,8.064-0.757,12.136
	c0.186,1.796,1.253,3.352,2.078,4.94c5.475,10.536,13.619,17.851,25.381,20.594c9.767,2.277,19.214,0.79,28.397-2.895
	c9.091-3.647,16.564-9.562,23.125-16.71c10.375-11.304,17.851-24.395,23.557-38.551c4.934-12.242,8.285-24.921,10.023-37.999
	c1.303-9.801,0.646-19.568-1.445-29.2c-5.083-23.416-15.804-43.989-31.571-61.983c-5.865-6.692-12.98-11.793-20.457-16.5
	c-11.309-7.119-23.083-13.178-36.041-16.728c-9.06-2.482-18.277-3.8-27.669-4.033c-13.677-0.339-27.136,1.271-40.336,4.735
	C90.528,42.813,78.865,49.4,68.406,58.041c-22.987,18.991-38.427,42.947-46.451,71.654c-2.354,8.423-3.52,17.04-3.625,25.798
	c-0.117,9.706,1.94,19.012,4.873,28.198c4.692,14.697,10.905,28.642,19.848,41.289c10.115,14.306,23.085,25.443,37.979,34.505
	c9.515,5.79,19.465,10.459,30.387,12.921c7.82,1.762,15.727,2.752,23.731,3.093c6.484,0.275,12.947,0.032,19.394-0.646
	c0.838-0.088,1.07,0.087,0.981,0.899c-0.117,1.071-0.213,2.151-0.215,3.228c-0.001,0.737-0.273,0.935-0.979,0.969
	c-6.794,0.334-13.58,0.296-20.368-0.19c-10.353-0.741-20.561-2.354-30.503-5.334c-15.182-4.548-29.496-10.908-42.021-20.846
	c-10.5-8.332-19.196-18.289-26.517-29.474c-8.939-13.66-15.767-28.307-20.135-44.046c-1.565-5.642-2.073-11.499-2.068-17.333
	c0.024-24.717,5.47-48.17,17.188-69.992c11.167-20.795,27.484-36.531,48.187-47.758c13.384-7.259,27.617-12.085,42.635-14.58
	c21.729-3.608,42.813-1.187,63.312,6.774c17.659,6.859,33.4,16.762,46.953,29.989c15.095,14.733,24.882,32.597,30.294,52.908
	c3.606,13.534,5.154,27.323,4.463,41.308c-0.707,14.303-2.892,28.361-8.054,41.818c-7.616,19.853-19.715,36.3-37.311,48.434
	c-7.193,4.96-14.855,9.083-23.534,10.939c-9.722,2.081-19.383,1.885-28.923-0.947c-7.917-2.351-13.262-7.751-16.981-14.921
	c-3.546-6.838-5.412-14.184-5.963-21.81c-0.314-4.341-1.244-8.529-2.301-12.689c-0.958-3.768-0.671-7.432-0.026-11.147
	c2.654-15.29,11.068-26.89,23.184-36.094c9.385-7.13,19.907-12.087,30.969-15.96c14.083-4.932,28.607-7.922,43.406-9.654
	c1.706-0.2,3.419-0.338,5.131-0.487c0.671-0.059,1.347-0.071,1.995-0.104c0.191,0.25,0.027,0.398-0.076,0.557
	c-6.532,10.05-12.897,20.214-19.641,30.121c-7.534,11.067-16.158,21.258-26.115,30.26c-8.808,7.964-18.387,14.749-29.619,18.918
	c-4.779,1.774-9.684,2.978-14.827,3.037c-0.995,0.011-1.12-0.229-0.811-1.129c2.506-7.317,6.547-13.756,11.305-19.776
	c8.191-10.362,18-19.036,28.422-27.057c5.704-4.39,11.611-8.493,17.687-12.354c0.402-0.256,0.784-0.546,1.175-0.82
	c0.099-0.052,0.197-0.104,0.295-0.156c0.152-0.096,0.305-0.191,0.457-0.287c0.099-0.083,0.358-0.097,0.225-0.284
	c-0.089-0.125-0.289-0.061-0.39,0.099c-0.155,0.088-0.31,0.176-0.465,0.264C214.853,160.18,214.744,160.215,214.635,160.251z"/>
<path fill-rule="evenodd" clip-rule="evenodd" fill="#FEFFFE" d="M64.452,155.693c4.354,3.114,8.761,6.156,13.051,9.356
	c10.813,8.068,21.217,16.619,30.367,26.586c5.043,5.494,9.673,11.294,12.66,18.227c1.229,2.853,1.983,5.818,2.03,8.937
	c0.021,1.386-0.09,1.452-1.428,1.259c-7.7-1.109-14.57-4.363-21.158-8.287c-8.322-4.957-15.738-11.087-22.694-17.794
	c-3.254-3.138-6.41-6.373-9.389-9.771c-3.433-3.915-6.267-8.286-9.279-12.517c-6.93-9.734-13.806-19.508-19.931-29.782
	c-1.288-2.161-2.519-4.354-3.444-6.706c-0.331-0.841-0.376-1.178,0.784-1.035c11.492,1.418,22.691,4.127,33.708,7.622
	c14.32,4.543,27.924,10.682,41.042,18.02c7.658,4.283,14.216,9.601,19.124,16.877c4.829,7.159,7.337,15.104,7.863,23.705
	c0.388,6.358-0.344,12.605-1.809,18.779c-0.15,0.635-0.098,1.111,0.246,1.676c3.826,6.284,5.461,13.147,5.341,20.468
	c-0.013,0.82-0.22,1.229-1.164,1.179c-1.476-0.081-2.963-0.091-4.437,0.002c-1.022,0.064-1.254-0.341-1.347-1.273
	c-0.556-5.606-1.142-11.216-2.244-16.742c-1.128-5.65-3.537-10.84-6.29-15.861c-5.913-10.785-13.858-19.921-23.016-28.041
	c-11.563-10.253-24.521-18.394-38.387-25.137c-0.103-0.04-0.206-0.08-0.309-0.12c-0.144-0.145-0.291-0.276-0.501-0.105
	c0.102,0.107,0.204,0.213,0.306,0.32C64.249,155.587,64.351,155.64,64.452,155.693z"/>
<path fill-rule="evenodd" clip-rule="evenodd" fill="#FEFFFE" d="M136.514,185.872c0.746-2.623,1.511-5.211,2.218-7.815
	c3.135-11.542,5.315-23.265,6.717-35.143c1.258-10.662,1.723-21.355,1.327-32.074c-0.448-12.133-2.111-24.101-5.445-35.805
	c-0.094-0.329-0.09-0.712-0.557-0.984c0.293,2.219,0.579,4.35,0.854,6.482c1.136,8.804,1.822,17.642,2.15,26.514
	c0.254,6.876,0.241,13.748-0.102,20.615c-0.683,13.688-2.494,27.195-6.673,40.307c-0.617,1.936-0.626,1.949-2.044,0.535
	c-2.841-2.833-4.492-6.377-5.876-10.058c-2.335-6.208-3.519-12.682-4.315-19.236c-1.081-8.905-1.357-17.852-1.162-26.81
	c0.425-19.503,3.006-38.684,8.909-57.335c1.664-5.258,3.762-10.352,6.434-15.193c0.228-0.413,0.481-0.813,0.795-1.34
	c1.492,2.52,2.727,5.016,3.919,7.532c7.476,15.779,12.813,32.244,15.843,49.448c2.056,11.677,2.488,23.417,1.562,35.232
	c-0.776,9.908-2.242,19.68-5.349,29.149c-2.334,7.115-5.492,13.802-10.57,19.43c-2.155,2.388-4.579,4.462-7.376,6.073
	C137.41,185.606,137.082,185.933,136.514,185.872z M140.653,73.08c0,0.271-0.016,0.378,0.004,0.478
	c0.024,0.119,0.1,0.125,0.146,0.012c0.026-0.064,0.023-0.147,0.011-0.219C140.805,73.3,140.76,73.255,140.653,73.08z"/>
<path fill-rule="evenodd" clip-rule="evenodd" fill="#7FC067" d="M215.426,159.88c0.102-0.16,0.301-0.225,0.39-0.099
	c0.134,0.188-0.126,0.201-0.225,0.284C215.537,160.003,215.481,159.941,215.426,159.88z"/>
<path fill-rule="evenodd" clip-rule="evenodd" fill="#7FC067" d="M215.592,160.065c-0.152,0.096-0.304,0.191-0.457,0.287
	c-0.058-0.069-0.116-0.139-0.174-0.208c0.155-0.088,0.31-0.176,0.465-0.264C215.481,159.941,215.537,160.003,215.592,160.065z"/>
<path fill-rule="evenodd" clip-rule="evenodd" fill="#7FC067" d="M215.135,160.352c-0.099,0.052-0.197,0.104-0.295,0.156
	c-0.068-0.086-0.137-0.171-0.205-0.257c0.109-0.036,0.218-0.071,0.327-0.107C215.019,160.213,215.077,160.283,215.135,160.352z"/>
<path fill-rule="evenodd" clip-rule="evenodd" fill="#7FC067" d="M64.146,155.534c-0.102-0.106-0.204-0.213-0.306-0.32
	c0.21-0.17,0.357-0.04,0.501,0.105C64.277,155.392,64.212,155.463,64.146,155.534z"/>
<path fill-rule="evenodd" clip-rule="evenodd" fill="#7FC067" d="M64.342,155.32c0.103,0.04,0.206,0.08,0.309,0.12
	c-0.066,0.084-0.132,0.169-0.198,0.253c-0.102-0.053-0.204-0.106-0.306-0.159C64.212,155.463,64.277,155.392,64.342,155.32z"/>
<path fill-rule="evenodd" clip-rule="evenodd" fill="#7FC067" d="M140.653,73.08c0.107,0.175,0.152,0.22,0.161,0.271
	c0.012,0.071,0.015,0.154-0.011,0.219c-0.046,0.113-0.122,0.107-0.146-0.012C140.637,73.458,140.653,73.351,140.653,73.08z"/>
</svg>
