<?xml version="1.0" encoding="utf-8"?>
<!-- Generator: Adobe Illustrator 16.0.0, SVG Export Plug-In . SVG Version: 6.00 Build 0)  -->
<!DOCTYPE svg PUBLIC "-//W3C//DTD SVG 1.1//EN" "http://www.w3.org/Graphics/SVG/1.1/DTD/svg11.dtd">
<svg version="1.1" id="Layer_1" xmlns="http://www.w3.org/2000/svg" xmlns:xlink="http://www.w3.org/1999/xlink" x="0px" y="0px"
	 width="443.978px" height="443.978px" viewBox="0 0 443.978 443.978" enable-background="new 0 0 443.978 443.978"
	 xml:space="preserve">
<path fill-rule="evenodd" clip-rule="evenodd" fill="#7FC067" d="M215.888,5.624c4.8,0,9.6,0,14.4,0
	c0.313,0.045,0.625,0.12,0.938,0.131c8.556,0.308,17.06,1.159,25.503,2.553c20.423,3.373,39.926,9.636,58.442,18.898
	c29.187,14.602,53.767,34.854,73.601,60.749c27.53,35.942,42.416,76.625,45.092,121.804c0.087,1.475-0.063,2.984,0.425,4.425
	c0,5.28,0,10.56,0,15.84c-0.37,0.144-0.225,0.47-0.235,0.721c-0.42,10.795-1.605,21.503-3.566,32.13
	c-3.629,19.669-9.822,38.493-18.627,56.442c-11.849,24.154-27.597,45.438-47.356,63.713c-22.014,20.359-47.179,35.463-75.62,45.025
	c-23.643,7.949-47.94,11.435-72.874,10.578c-11.047-0.38-21.991-1.597-32.828-3.732c-19.149-3.774-37.4-10.145-54.744-19.11
	c-22.205-11.477-41.739-26.454-58.667-44.825c-16.862-18.3-30.17-38.913-39.953-61.795c-9.951-23.278-15.691-47.556-17.249-72.824
	c-0.135-2.188-0.294-4.376-0.442-6.564c0-5.04,0-10.08,0-15.12c0.049-0.433,0.127-0.865,0.144-1.3
	c0.31-8.233,1.075-16.425,2.311-24.567c2.654-17.479,7.292-34.415,14.041-50.763c11.323-27.43,27.515-51.589,48.685-72.397
	c16.792-16.505,35.793-29.875,57.054-39.998c23.772-11.317,48.8-17.868,75.084-19.571C211.594,5.929,213.741,5.772,215.888,5.624z
	 M143.539,155.439c13.866,6.744,26.823,14.884,38.387,25.137c9.158,8.12,17.103,17.256,23.016,28.041
	c2.753,5.021,5.162,10.211,6.29,15.861c1.103,5.525,1.688,11.136,2.244,16.742c0.092,0.933,0.325,1.338,1.347,1.273
	c1.474-0.093,2.961-0.083,4.437-0.002c0.943,0.051,1.15-0.359,1.164-1.179c0.12-7.321-1.515-14.184-5.341-20.468
	c-0.344-0.565-0.396-1.042-0.246-1.676c1.465-6.174,2.197-12.421,1.809-18.779c-0.525-8.601-3.034-16.545-7.863-23.705
	c-4.908-7.276-11.466-12.594-19.124-16.877c-13.119-7.337-26.723-13.477-41.042-18.02c-11.017-3.495-22.216-6.204-33.708-7.622
	c-1.16-0.143-1.114,0.193-0.784,1.035c0.925,2.352,2.156,4.545,3.444,6.706c6.125,10.274,13.001,20.048,19.931,29.782
	c3.012,4.23,5.846,8.602,9.279,12.517c2.979,3.397,6.135,6.633,9.389,9.771c6.956,6.708,14.372,12.838,22.694,17.794
	c6.588,3.924,13.458,7.178,21.158,8.287c1.338,0.193,1.449,0.127,1.428-1.259c-0.046-3.118-0.801-6.084-2.03-8.937
	c-2.986-6.932-7.617-12.732-12.66-18.227c-9.15-9.968-19.554-18.518-30.367-26.586c-4.29-3.201-8.697-6.242-13.051-9.356
	C143.406,155.608,143.472,155.524,143.539,155.439z M293.522,160.251c0.068,0.086,0.137,0.171,0.205,0.257
	c-0.391,0.274-0.772,0.563-1.175,0.82c-6.076,3.861-11.983,7.964-17.687,12.354c-10.422,8.021-20.231,16.695-28.422,27.057
	c-4.758,6.02-8.799,12.459-11.305,19.776c-0.309,0.9-0.184,1.141,0.811,1.129c5.144-0.059,10.048-1.263,14.827-3.037
	c11.232-4.169,20.811-10.954,29.619-18.918c9.957-9.002,18.581-19.193,26.115-30.26c6.744-9.906,13.109-20.07,19.641-30.121
	c0.103-0.159,0.267-0.307,0.076-0.557c-0.648,0.032-1.324,0.044-1.995,0.104c-1.711,0.149-3.425,0.288-5.131,0.487
	c-14.799,1.731-29.323,4.722-43.406,9.654c-11.062,3.874-21.584,8.831-30.969,15.96c-12.116,9.204-20.53,20.804-23.184,36.094
	c-0.645,3.715-0.932,7.38,0.026,11.147c1.057,4.16,1.987,8.348,2.301,12.689c0.551,7.625,2.417,14.972,5.963,21.81
	c3.719,7.17,9.064,12.57,16.981,14.921c9.54,2.832,19.201,3.028,28.923,0.947c8.679-1.857,16.341-5.979,23.534-10.939
	c17.596-12.133,29.695-28.581,37.311-48.434c5.163-13.458,7.347-27.515,8.054-41.818c0.691-13.985-0.857-27.774-4.463-41.308
	c-5.412-20.311-15.199-38.175-30.294-52.908c-13.552-13.227-29.293-23.13-46.953-29.989c-20.498-7.961-41.583-10.383-63.312-6.774
	c-15.018,2.494-29.251,7.321-42.635,14.58c-20.702,11.228-37.02,26.963-48.187,47.758c-11.718,21.822-17.164,45.275-17.188,69.992
	c-0.005,5.834,0.502,11.691,2.068,17.333c4.368,15.739,11.196,30.386,20.135,44.046c7.32,11.185,16.016,21.142,26.517,29.474
	c12.525,9.938,26.839,16.297,42.021,20.846c9.943,2.979,20.15,4.593,30.503,5.334c6.789,0.486,13.574,0.524,20.368,0.19
	c0.706-0.035,0.977-0.232,0.979-0.969c0.001-1.077,0.098-2.156,0.215-3.228c0.089-0.812-0.144-0.988-0.981-0.899
	c-6.447,0.677-12.909,0.921-19.394,0.646c-8.004-0.34-15.911-1.331-23.731-3.093c-10.922-2.461-20.873-7.131-30.387-12.921
	c-14.893-9.062-27.863-20.199-37.979-34.505c-8.942-12.647-15.155-26.591-19.848-41.289c-2.933-9.186-4.99-18.492-4.873-28.198
	c0.105-8.758,1.271-17.375,3.625-25.798c8.024-28.707,23.463-52.663,46.451-71.654c10.459-8.641,22.123-15.229,35.316-18.691
	c13.2-3.464,26.66-5.075,40.336-4.735c9.393,0.233,18.609,1.55,27.669,4.033c12.958,3.549,24.732,9.608,36.041,16.728
	c7.477,4.707,14.592,9.807,20.457,16.5c15.767,17.994,26.489,38.567,31.571,61.983c2.091,9.632,2.748,19.398,1.445,29.2
	c-1.738,13.078-5.089,25.757-10.023,37.999c-5.706,14.156-13.182,27.247-23.557,38.551c-6.561,7.148-14.033,13.063-23.125,16.71
	c-9.184,3.685-18.63,5.172-28.397,2.895c-11.762-2.743-19.907-10.058-25.381-20.594c-0.825-1.588-1.893-3.144-2.078-4.94
	c-0.421-4.072-0.363-8.172,0.757-12.136c1.742-6.162,5.093-11.52,8.814-16.645c6.822-9.397,15.171-17.289,24.3-24.393
	C271.468,172.701,282.237,166.066,293.522,160.251z M215.402,185.872c0.568,0.061,0.896-0.266,1.259-0.475
	c2.797-1.611,5.221-3.686,7.376-6.073c5.078-5.627,8.236-12.314,10.57-19.43c3.106-9.469,4.572-19.241,5.349-29.149
	c0.926-11.815,0.494-23.556-1.562-35.232c-3.029-17.204-8.367-33.669-15.843-49.448c-1.192-2.516-2.428-5.012-3.919-7.532
	c-0.314,0.527-0.567,0.927-0.795,1.34c-2.671,4.841-4.77,9.935-6.434,15.193c-5.903,18.651-8.484,37.832-8.909,57.335
	c-0.195,8.958,0.082,17.905,1.162,26.81c0.796,6.554,1.979,13.029,4.315,19.236c1.385,3.681,3.035,7.224,5.876,10.058
	c1.418,1.414,1.427,1.401,2.044-0.535c4.179-13.112,5.99-26.62,6.673-40.307c0.343-6.868,0.355-13.739,0.102-20.615
	c-0.328-8.872-1.014-17.71-2.15-26.514c-0.275-2.133-0.562-4.264-0.854-6.482c0.467,0.272,0.463,0.655,0.557,0.984
	c3.334,11.704,4.997,23.672,5.445,35.805c0.396,10.719-0.068,21.412-1.327,32.074c-1.402,11.878-3.582,23.601-6.717,35.143
	C216.913,180.661,216.147,183.249,215.402,185.872z M95.21,366.966c-0.081-0.016-0.162-0.032-0.243-0.047
	c-1.746-6.883-3.492-13.767-5.239-20.649c-0.672-2.649-0.674-2.615-3.46-2.644c-0.957-0.01-1.218,0.158-0.94,1.185
	c2.228,8.243,4.392,16.503,6.583,24.756c0.799,3.008,0.81,2.971,3.939,3.008c0.874,0.011,1.234-0.243,1.442-1.107
	c1.518-6.325,3.078-12.641,4.658-18.95c0.265-1.058,0.406-2.165,0.972-3.321c0.151,0.457,0.263,0.738,0.337,1.029
	c1.625,6.422,3.254,12.843,4.864,19.268c0.77,3.072,0.754,3.034,3.978,3.086c0.953,0.015,1.302-0.324,1.524-1.192
	c2.14-8.349,4.314-16.688,6.481-25.03c0.724-2.787,0.728-2.762-2.193-2.729c-0.731,0.009-1.022,0.232-1.2,0.966
	c-1.314,5.429-2.683,10.846-4.037,16.266c-0.526,2.108-1.057,4.216-1.585,6.324c-0.316-0.343-0.421-0.664-0.502-0.992
	c-1.643-6.624-3.279-13.248-4.925-19.871c-0.67-2.699-0.68-2.646-3.434-2.705c-0.959-0.021-1.308,0.324-1.518,1.196
	c-1.188,4.927-2.419,9.843-3.641,14.762C96.457,362.041,95.831,364.502,95.21,366.966z M262.251,310.678
	c0-0.579,0.015-1.019-0.002-1.458c-0.129-3.26-0.87-6.354-2.898-8.97c-3.294-4.25-7.855-5.269-12.881-4.572
	c-5.608,0.778-8.996,4.18-10.384,9.581c-0.899,3.498-0.895,7.049-0.01,10.553c1.084,4.293,3.537,7.478,7.828,8.984
	c2.578,0.905,5.243,0.983,7.923,0.521c3.826-0.659,6.693-2.688,8.539-6.109C261.822,316.505,262.351,313.587,262.251,310.678z
	 M138.156,373.108c6.929,0,11.535-3.745,12.964-10.535c0.558-2.65,0.553-5.308,0.197-7.984c-0.847-6.371-4.789-10.575-11.108-11.389
	c-6.575-0.847-12.949,1.729-14.949,9.905c-0.642,2.622-0.659,5.287-0.366,7.977C125.712,368.579,130.674,373.109,138.156,373.108z
	 M181.538,372.55c-3.744-4.359-7.252-8.444-10.786-12.56c0.641-0.356,1.213-0.643,1.752-0.979c3.128-1.953,4.62-5.445,3.905-9.105
	c-0.631-3.233-2.889-5.312-6.673-5.944c-3.649-0.61-7.344-0.198-11.015-0.337c-0.977-0.037-1.178,0.309-1.174,1.22
	c0.033,8.32,0.019,16.64,0.019,24.959c0,2.774,0.001,2.728,2.719,2.773c0.974,0.016,1.202-0.302,1.187-1.221
	c-0.051-3.119,0.002-6.24-0.034-9.359c-0.009-0.74,0.222-0.979,0.954-0.945c1.157,0.053,2.321,0.052,3.479-0.001
	c0.668-0.03,1.092,0.211,1.512,0.716c2.786,3.352,5.6,6.679,8.411,10.009c0.299,0.354,0.529,0.792,1.123,0.781
	C178.341,372.533,179.767,372.55,181.538,372.55z M347.543,373.036c0.6,0,1.202,0.04,1.798-0.007
	c2.946-0.229,5.611-1.127,7.796-3.23c3.146-3.026,3.776-10.249-2.561-12.421c-1.443-0.495-2.914-0.82-4.399-1.122
	c-2.071-0.421-4.198-0.582-6.194-1.344c-1.51-0.577-2.427-1.61-2.583-3.276c-0.162-1.739,0.526-3.026,1.979-3.934
	c0.928-0.579,1.939-0.934,3.028-1.056c3.966-0.446,7.602,0.466,10.933,2.648c0.222,0.146,0.416,0.481,0.709,0.346
	c0.365-0.167,0.186-0.566,0.194-0.861c0.024-0.879-0.044-1.764,0.024-2.638c0.06-0.765-0.222-1.136-0.939-1.395
	c-2.999-1.083-6.086-1.669-9.269-1.637c-2.635,0.026-5.153,0.561-7.375,2.105c-2.529,1.757-3.643,4.165-3.337,7.22
	c0.285,2.853,1.845,4.777,4.417,5.937c1.061,0.478,2.173,0.78,3.309,1.027c2.609,0.568,5.324,0.665,7.829,1.686
	c2.418,0.986,3.258,3.835,1.79,5.978c-0.629,0.917-1.504,1.541-2.542,1.923c-1.874,0.69-3.809,0.87-5.782,0.61
	c-3.063-0.402-5.886-1.423-8.382-3.282c-0.209-0.156-0.409-0.474-0.714-0.279c-0.272,0.174-0.145,0.514-0.148,0.779
	c-0.013,1.04,0.04,2.083-0.021,3.119c-0.042,0.701,0.286,0.974,0.874,1.21C341.05,372.379,344.216,373.113,347.543,373.036z
	 M313.327,358.133c0,4.438,0.027,8.877-0.022,13.315c-0.01,0.914,0.26,1.132,1.144,1.125c5.238-0.04,10.476-0.02,15.714-0.02
	c2.292,0,2.248,0,2.287-2.267c0.016-0.933-0.244-1.234-1.207-1.224c-4.317,0.049-8.636,0.003-12.955,0.036
	c-0.827,0.006-1.107-0.241-1.093-1.086c0.045-2.798,0.052-5.598-0.003-8.396c-0.019-0.918,0.202-1.229,1.179-1.215
	c3.958,0.059,7.917,0.024,11.875,0.024c2.196,0,2.131-0.002,2.209-2.21c0.039-1.101-0.342-1.327-1.364-1.314
	c-4.238,0.054-8.477,0.004-12.715,0.038c-0.846,0.007-1.222-0.169-1.186-1.118c0.072-1.877,0.064-3.76,0.002-5.637
	c-0.029-0.864,0.273-1.064,1.09-1.056c3.958,0.039,7.917,0.018,11.875,0.018c2.307,0,2.266,0,2.291-2.363
	c0.009-0.89-0.245-1.165-1.149-1.158c-5.638,0.038-11.276,0.034-16.914,0.002c-0.828-0.005-1.087,0.222-1.08,1.07
	C313.348,349.175,313.327,353.654,313.327,358.133z M184.404,310.546c0,4.358,0.043,8.717-0.029,13.075
	c-0.019,1.147,0.359,1.377,1.417,1.366c5.078-0.05,10.156-0.022,15.234-0.022c2.412,0,2.364-0.001,2.408-2.368
	c0.017-0.923-0.275-1.129-1.151-1.12c-4.318,0.043-8.637-0.004-12.955,0.039c-0.855,0.008-1.071-0.25-1.057-1.079
	c0.049-2.838,0.051-5.678-0.001-8.516c-0.016-0.847,0.236-1.074,1.071-1.065c3.958,0.042,7.917,0.019,11.875,0.019
	c2.201,0,2.13-0.002,2.222-2.192c0.047-1.108-0.333-1.313-1.348-1.3c-4.238,0.054-8.477,0.006-12.715,0.038
	c-0.793,0.006-1.137-0.159-1.106-1.044c0.065-1.917,0.065-3.84,0-5.757c-0.03-0.877,0.29-1.049,1.093-1.042
	c3.918,0.037,7.837,0.017,11.756,0.017c2.305,0,2.267-0.001,2.311-2.334c0.017-0.896-0.168-1.236-1.164-1.228
	c-5.558,0.051-11.116,0.046-16.674,0.004c-0.938-0.007-1.22,0.242-1.209,1.196C184.431,301.668,184.404,306.107,184.404,310.546z
	 M189.42,358.296c-0.091-0.028-0.181-0.057-0.272-0.085c0-0.434,0-0.868,0-1.302c0-3.519,0-7.038,0-10.557
	c0-2.729-0.001-2.669-2.676-2.738c-1.112-0.028-1.299,0.365-1.294,1.371c0.039,8.237,0.022,16.475,0.022,24.712
	c0,2.952,0,2.927,2.992,2.872c0.727-0.014,0.983-0.223,0.969-0.956c-0.038-1.918,0.117-3.85-0.046-5.755
	c-0.184-2.144,0.32-3.846,2.011-5.28c0.715-0.607,0.985-0.7,1.619,0.027c3.285,3.765,6.621,7.485,9.945,11.216
	c0.282,0.316,0.494,0.735,1.029,0.731c1.459-0.012,2.918-0.004,4.408-0.004c-0.071-0.633-0.476-0.875-0.753-1.189
	c-3.932-4.472-7.862-8.946-11.827-13.389c-0.514-0.577-0.501-0.884,0.037-1.437c2.591-2.665,5.13-5.379,7.687-8.076
	c1.442-1.521,2.883-3.042,4.561-4.813c-1.417,0-2.484,0.053-3.544-0.017c-0.884-0.059-1.487,0.25-2.072,0.907
	c-1.62,1.821-3.312,3.578-4.973,5.361C194.635,352.696,192.028,355.496,189.42,358.296z M255.189,372.553
	c1.11,0,2.064-0.048,3.01,0.016c0.73,0.05,1.07-0.228,1.296-0.906c0.706-2.117,1.504-4.204,2.191-6.327
	c0.229-0.708,0.589-0.888,1.286-0.882c3.476,0.032,6.953,0.035,10.428-0.002c0.716-0.007,1.07,0.22,1.29,0.897
	c0.504,1.554,1.083,3.084,1.619,4.628c0.897,2.579,0.894,2.58,3.656,2.575c1.427-0.002,1.43-0.003,0.946-1.335
	c-2.891-7.945-5.771-15.894-8.687-23.831c-0.45-1.225-0.511-2.869-1.519-3.545c-1.004-0.674-2.562-0.093-3.867-0.214
	c-0.942-0.087-1.284,0.333-1.585,1.173c-2.735,7.612-5.525,15.204-8.294,22.803C256.378,369.205,255.813,370.812,255.189,372.553z
	 M212.56,358.054c0,3.88,0,7.76,0,11.64c0,2.907,0,2.876,2.87,2.878c0.827,0,1.109-0.228,1.096-1.075
	c-0.044-2.879,0.009-5.76-0.033-8.639c-0.012-0.815,0.2-1.101,1.061-1.094c1.995,0.016,3.992,0.127,5.985-0.2
	c4.533-0.744,7.878-4.321,7.952-8.582c0.09-5.168-2.276-8.125-7.47-9.039c-3.561-0.627-7.182-0.213-10.776-0.296
	c-0.853-0.02-0.68,0.599-0.681,1.088C212.557,349.175,212.56,353.615,212.56,358.054z M288.099,357.997
	c-0.028-0.967,0.081-2.076,0.265-3.183c0.945-5.684,5.389-8.953,11.094-8.258c2.874,0.35,5.349,1.506,7.596,3.26
	c0.234,0.183,0.464,0.539,0.815,0.347c0.284-0.156,0.135-0.507,0.14-0.769c0.017-0.958-0.04-1.921,0.022-2.876
	c0.044-0.686-0.271-0.997-0.836-1.261c-2.67-1.249-5.46-2.07-8.411-2.138c-6.29-0.145-11.458,2.443-13.683,8.403
	c-1.292,3.46-1.391,7.054-0.734,10.632c0.844,4.6,3.161,8.208,7.725,9.896c4.384,1.621,8.78,1.311,13.106-0.365
	c2.817-1.091,2.817-1.092,2.817-4.122c0-0.24,0.021-0.481-0.005-0.719c-0.032-0.297,0.161-0.705-0.217-0.855
	c-0.293-0.116-0.48,0.223-0.688,0.391c-2.227,1.803-4.738,2.955-7.603,3.231c-3.632,0.351-6.855-0.473-9.142-3.547
	C288.625,363.729,288.053,361.018,288.099,357.997z M231.73,318.4c-0.607,0.013-0.825,0.396-1.126,0.627
	c-1.473,1.127-3.057,2.05-4.858,2.521c-4.043,1.058-7.855,0.896-11.003-2.308c-1.234-1.256-1.966-2.826-2.398-4.5
	c-0.732-2.835-0.731-5.708,0.031-8.534c1.554-5.754,6.374-8.396,12.495-6.944c2.265,0.537,4.227,1.639,6.041,3.053
	c0.18,0.14,0.436,0.346,0.603,0.305c0.359-0.088,0.204-0.464,0.208-0.717c0.018-0.999-0.027-2,0.021-2.998
	c0.028-0.603-0.179-0.931-0.73-1.188c-2.82-1.32-5.756-2.125-8.885-2.174c-6.494-0.1-11.435,3.032-13.353,8.697
	c-1.492,4.41-1.441,8.893,0.191,13.275c1.332,3.575,3.841,6.047,7.512,7.192c5.124,1.598,10.016,0.764,14.741-1.568
	c0.446-0.22,0.521-0.524,0.516-0.955C231.72,320.946,231.73,319.708,231.73,318.4z M235.088,408.043c0-3.236,0.033-6.473-0.01-9.709
	c-0.038-2.826-1.281-4.752-3.494-5.246c-3.806-0.85-7.271,0.317-7.316,5.3c-0.059,6.392-0.067,12.785,0.001,19.177
	c0.05,4.684,3.072,5.993,7.02,5.308c2.424-0.421,3.734-2.306,3.783-5.241C235.126,414.437,235.085,411.24,235.088,408.043z
	 M221.41,402.764c-0.011,0-0.022,0-0.034,0c0-1.559,0.07-3.122-0.017-4.675c-0.117-2.085-0.715-3.957-2.878-4.848
	c-3.765-1.55-7.161,0.573-7.403,4.62c-0.029,0.479-0.032,0.959-0.032,1.438c-0.002,5.757-0.003,11.514,0.001,17.271
	c0,0.679-0.009,1.363,0.062,2.036c0.294,2.769,1.915,4.309,4.602,4.416c3.171,0.125,4.917-1.142,5.5-3.959
	c0.27-1.308,0.189-2.627,0.196-3.943c0.014-2.394,0.005-2.368-2.355-2.274c-0.631,0.025-0.834,0.224-0.816,0.84
	c0.035,1.198,0.03,2.398,0,3.597c-0.025,1.016-0.323,1.92-1.401,2.283c-1.382,0.464-2.581-0.32-2.638-1.884
	c-0.104-2.875-0.05-5.754-0.093-8.631c-0.01-0.708,0.382-0.745,0.915-0.741c1.839,0.013,3.679-0.021,5.517,0.017
	c0.676,0.014,0.907-0.2,0.889-0.884C221.381,405.883,221.41,404.323,221.41,402.764z M236.526,358.07
	c0,4.476,0.021,8.951-0.018,13.427c-0.007,0.836,0.225,1.081,1.068,1.074c4.955-0.038,9.91-0.019,14.866-0.019
	c2.366,0,2.327,0,2.349-2.415c0.007-0.846-0.251-1.079-1.08-1.071c-4.036,0.038-8.073-0.017-12.108,0.041
	c-1.003,0.014-1.263-0.267-1.256-1.265c0.043-7.153,0.023-14.306,0.023-21.459c0-2.779,0-2.742-2.73-2.761
	c-0.889-0.006-1.146,0.233-1.137,1.141C236.553,349.198,236.526,353.634,236.526,358.07z M187.566,390.7c0,1.479,0,2.957,0,4.435
	c0,1.574-0.001,1.557,1.574,1.449c0.298-0.021,0.61,0.157,0.915,0.243c2.361,0.667,4.337-0.459,4.959-2.829
	c0.3-1.145,0.28-2.292,0.004-3.437c-0.492-2.044-1.973-3.018-4.015-2.594c-0.458,0.095-0.904,0.317-1.318,0.546
	c-0.495,0.274-0.639,0.111-0.633-0.386c0.007-0.679,0.058-1.365-0.019-2.035c-0.059-0.523,0.451-1.375-0.701-1.41
	c-1.16-0.036-0.736,0.817-0.751,1.346C187.537,387.583,187.566,389.142,187.566,390.7z M196.456,388.276
	c0.773,1.845,1.405,3.707,2.313,5.422c0.963,1.82,1.083,3.475-0.073,5.217c-0.154,0.232-0.694,0.753-0.108,0.962
	c0.465,0.166,1.164,0.354,1.51-0.47c1.555-3.709,3.148-7.402,4.737-11.123c-1.067-0.349-1.672-0.127-2.053,0.955
	c-0.589,1.675-1.351,3.289-2.124,5.128c-0.762-1.836-1.492-3.433-2.082-5.08C198.208,388.263,197.652,387.881,196.456,388.276z
	 M216.153,391.546c0.479,0,0.965-0.048,1.437,0.01c0.913,0.113,1.352-0.182,1.188-1.158c-0.046-0.272-0.034-0.562-0.002-0.837
	c0.076-0.657-0.25-0.822-0.841-0.804c-0.958,0.03-1.924,0.076-2.875-0.011c-1.087-0.101-1.418,0.255-1.418,1.374
	c0,1.123,0.241,1.644,1.435,1.436C215.425,391.495,215.793,391.546,216.153,391.546z"/>
<path fill-rule="evenodd" clip-rule="evenodd" fill="#FEFFFE" d="M293.522,160.251c-11.285,5.815-22.055,12.45-32.083,20.252
	c-9.129,7.104-17.478,14.996-24.3,24.393c-3.721,5.125-7.072,10.483-8.814,16.645c-1.121,3.964-1.179,8.064-0.757,12.136
	c0.186,1.796,1.253,3.352,2.078,4.94c5.475,10.536,13.619,17.851,25.381,20.594c9.767,2.277,19.214,0.79,28.397-2.895
	c9.091-3.647,16.564-9.562,23.125-16.71c10.375-11.304,17.851-24.395,23.557-38.551c4.934-12.242,8.285-24.921,10.023-37.999
	c1.303-9.801,0.646-19.568-1.445-29.2c-5.083-23.416-15.804-43.989-31.571-61.983c-5.865-6.692-12.98-11.793-20.457-16.5
	c-11.309-7.119-23.083-13.178-36.041-16.728c-9.06-2.482-18.277-3.8-27.669-4.033c-13.677-0.339-27.136,1.271-40.336,4.735
	c-13.193,3.462-24.857,10.05-35.316,18.691c-22.987,18.991-38.427,42.947-46.451,71.654c-2.354,8.423-3.52,17.04-3.625,25.798
	c-0.117,9.706,1.94,19.012,4.873,28.198c4.692,14.697,10.905,28.642,19.848,41.289c10.115,14.306,23.085,25.443,37.979,34.505
	c9.515,5.79,19.465,10.459,30.387,12.921c7.82,1.762,15.727,2.752,23.731,3.093c6.484,0.275,12.947,0.032,19.394-0.646
	c0.838-0.088,1.07,0.087,0.981,0.899c-0.117,1.071-0.213,2.151-0.215,3.228c-0.001,0.737-0.273,0.935-0.979,0.969
	c-6.794,0.334-13.58,0.296-20.368-0.19c-10.353-0.741-20.561-2.354-30.503-5.334c-15.182-4.548-29.496-10.908-42.021-20.846
	c-10.5-8.332-19.196-18.289-26.517-29.474c-8.939-13.66-15.767-28.307-20.135-44.046c-1.565-5.642-2.073-11.499-2.068-17.333
	c0.024-24.717,5.47-48.17,17.188-69.992c11.167-20.795,27.484-36.531,48.187-47.758c13.384-7.259,27.617-12.085,42.635-14.58
	c21.729-3.608,42.813-1.187,63.312,6.774c17.659,6.859,33.4,16.762,46.953,29.989c15.095,14.733,24.882,32.597,30.294,52.908
	c3.606,13.534,5.154,27.323,4.463,41.308c-0.707,14.303-2.892,28.361-8.054,41.818c-7.616,19.853-19.715,36.3-37.311,48.434
	c-7.193,4.96-14.855,9.083-23.534,10.939c-9.722,2.081-19.383,1.885-28.923-0.947c-7.917-2.351-13.262-7.751-16.981-14.921
	c-3.546-6.838-5.412-14.184-5.963-21.81c-0.314-4.341-1.244-8.529-2.301-12.689c-0.958-3.768-0.671-7.432-0.026-11.147
	c2.654-15.29,11.068-26.89,23.184-36.094c9.385-7.13,19.907-12.087,30.969-15.96c14.083-4.932,28.607-7.922,43.406-9.654
	c1.706-0.2,3.419-0.338,5.131-0.487c0.671-0.059,1.347-0.071,1.995-0.104c0.191,0.25,0.027,0.398-0.076,0.557
	c-6.532,10.05-12.897,20.214-19.641,30.121c-7.534,11.067-16.158,21.258-26.115,30.26c-8.808,7.964-18.387,14.749-29.619,18.918
	c-4.779,1.774-9.684,2.978-14.827,3.037c-0.995,0.011-1.12-0.229-0.811-1.129c2.506-7.317,6.547-13.756,11.305-19.776
	c8.191-10.362,18-19.036,28.422-27.057c5.704-4.39,11.611-8.493,17.687-12.354c0.402-0.256,0.784-0.546,1.175-0.82
	c0.099-0.052,0.197-0.104,0.295-0.156c0.152-0.096,0.305-0.191,0.457-0.287c0.099-0.083,0.358-0.097,0.225-0.284
	c-0.089-0.125-0.289-0.061-0.39,0.099c-0.155,0.088-0.31,0.176-0.465,0.264C293.74,160.18,293.631,160.215,293.522,160.251z"/>
<path fill-rule="evenodd" clip-rule="evenodd" fill="#FEFFFE" d="M143.34,155.693c4.354,3.114,8.761,6.156,13.051,9.356
	c10.813,8.068,21.217,16.619,30.367,26.586c5.043,5.494,9.673,11.294,12.66,18.227c1.229,2.853,1.983,5.818,2.03,8.937
	c0.021,1.386-0.09,1.452-1.428,1.259c-7.7-1.109-14.57-4.363-21.158-8.287c-8.322-4.957-15.738-11.087-22.694-17.794
	c-3.254-3.138-6.41-6.373-9.389-9.771c-3.433-3.915-6.267-8.286-9.279-12.517c-6.93-9.734-13.806-19.508-19.931-29.782
	c-1.288-2.161-2.519-4.354-3.444-6.706c-0.331-0.841-0.376-1.178,0.784-1.035c11.492,1.418,22.691,4.127,33.708,7.622
	c14.32,4.543,27.924,10.682,41.042,18.02c7.658,4.283,14.216,9.601,19.124,16.877c4.829,7.159,7.337,15.104,7.863,23.705
	c0.388,6.358-0.344,12.605-1.809,18.779c-0.15,0.635-0.098,1.111,0.246,1.676c3.826,6.284,5.461,13.147,5.341,20.468
	c-0.013,0.82-0.22,1.229-1.164,1.179c-1.476-0.081-2.963-0.091-4.437,0.002c-1.022,0.064-1.254-0.341-1.347-1.273
	c-0.556-5.606-1.142-11.216-2.244-16.742c-1.128-5.65-3.537-10.84-6.29-15.861c-5.913-10.785-13.858-19.921-23.016-28.041
	c-11.563-10.253-24.521-18.394-38.387-25.137c-0.103-0.04-0.206-0.08-0.309-0.12c-0.144-0.145-0.291-0.276-0.501-0.105
	c0.102,0.107,0.204,0.213,0.306,0.32C143.136,155.587,143.238,155.64,143.34,155.693z"/>
<path fill-rule="evenodd" clip-rule="evenodd" fill="#FEFFFE" d="M215.402,185.872c0.746-2.623,1.511-5.211,2.218-7.815
	c3.135-11.542,5.315-23.265,6.717-35.143c1.258-10.662,1.723-21.355,1.327-32.074c-0.448-12.133-2.111-24.101-5.445-35.805
	c-0.094-0.329-0.09-0.712-0.557-0.984c0.293,2.219,0.579,4.35,0.854,6.482c1.136,8.804,1.822,17.642,2.15,26.514
	c0.254,6.876,0.241,13.748-0.102,20.615c-0.683,13.688-2.494,27.195-6.673,40.307c-0.617,1.936-0.626,1.949-2.044,0.535
	c-2.841-2.833-4.492-6.377-5.876-10.058c-2.335-6.208-3.519-12.682-4.315-19.236c-1.081-8.905-1.357-17.852-1.162-26.81
	c0.425-19.503,3.006-38.684,8.909-57.335c1.664-5.258,3.762-10.352,6.434-15.193c0.228-0.413,0.481-0.813,0.795-1.34
	c1.492,2.52,2.727,5.016,3.919,7.532c7.476,15.779,12.813,32.244,15.843,49.448c2.056,11.677,2.488,23.417,1.562,35.232
	c-0.776,9.908-2.242,19.68-5.349,29.149c-2.334,7.115-5.492,13.802-10.57,19.43c-2.155,2.388-4.579,4.462-7.376,6.073
	C216.298,185.606,215.97,185.933,215.402,185.872z M219.541,73.08c0,0.271-0.016,0.378,0.004,0.478
	c0.024,0.119,0.1,0.125,0.146,0.012c0.026-0.064,0.023-0.147,0.011-0.219C219.693,73.3,219.648,73.255,219.541,73.08z"/>
<path fill-rule="evenodd" clip-rule="evenodd" fill="#FBFDFA" d="M95.21,366.966c0.62-2.464,1.246-4.926,1.859-7.392
	c1.222-4.918,2.454-9.835,3.641-14.762c0.21-0.872,0.559-1.217,1.518-1.196c2.754,0.058,2.764,0.006,3.434,2.705
	c1.646,6.623,3.283,13.247,4.925,19.871c0.082,0.328,0.187,0.649,0.502,0.992c0.529-2.108,1.059-4.216,1.585-6.324
	c1.354-5.42,2.723-10.837,4.037-16.266c0.178-0.734,0.469-0.957,1.2-0.966c2.921-0.033,2.917-0.057,2.193,2.729
	c-2.167,8.342-4.341,16.682-6.481,25.03c-0.223,0.869-0.572,1.208-1.524,1.192c-3.224-0.053-3.208-0.015-3.978-3.086
	c-1.61-6.425-3.239-12.846-4.864-19.268c-0.074-0.292-0.186-0.573-0.337-1.029c-0.565,1.156-0.707,2.264-0.972,3.321
	c-1.58,6.31-3.14,12.625-4.658,18.95c-0.208,0.865-0.568,1.118-1.442,1.107c-3.129-0.037-3.14,0-3.939-3.008
	c-2.192-8.253-4.356-16.513-6.583-24.756c-0.277-1.027-0.016-1.195,0.94-1.185c2.786,0.029,2.788-0.005,3.46,2.644
	c1.747,6.883,3.493,13.766,5.239,20.649C95.048,366.935,95.129,366.951,95.21,366.966z"/>
<path fill-rule="evenodd" clip-rule="evenodd" fill="#FBFDFA" d="M262.251,310.678c0.1,2.909-0.429,5.828-1.886,8.531
	c-1.845,3.421-4.713,5.45-8.539,6.109c-2.68,0.461-5.345,0.384-7.923-0.521c-4.291-1.507-6.744-4.691-7.828-8.984
	c-0.885-3.503-0.89-7.055,0.01-10.553c1.389-5.4,4.776-8.802,10.384-9.581c5.026-0.697,9.587,0.322,12.881,4.572
	c2.028,2.616,2.769,5.709,2.898,8.97C262.267,309.659,262.251,310.099,262.251,310.678z M239.547,310.493
	c-0.009,1.361,0.092,2.712,0.363,4.049c0.902,4.448,4.097,7.428,8.19,7.635c4.693,0.237,8.15-2.068,9.433-6.47
	c1.039-3.567,1.032-7.188-0.139-10.733c-1.286-3.891-4.337-6.054-8.386-6.098c-4.095-0.044-7.125,2.014-8.571,5.851
	C239.739,306.582,239.541,308.523,239.547,310.493z"/>
<path fill-rule="evenodd" clip-rule="evenodd" fill="#FBFDFA" d="M138.156,373.108c-7.482,0-12.444-4.53-13.262-12.026
	c-0.293-2.689-0.276-5.354,0.366-7.977c2-8.176,8.375-10.752,14.949-9.905c6.319,0.814,10.261,5.019,11.108,11.389
	c0.355,2.676,0.36,5.334-0.197,7.984C149.691,369.363,145.085,373.108,138.156,373.108z M147.491,357.919
	c0.091-0.964-0.091-2.155-0.293-3.333c-0.141-0.82-0.379-1.637-0.68-2.415c-1.458-3.765-4.491-5.79-8.531-5.744
	c-3.944,0.044-6.957,2.13-8.277,5.91c-1.333,3.816-1.338,7.697-0.01,11.514c1.301,3.736,4.319,5.842,8.169,5.885
	c4.207,0.047,7.184-1.906,8.661-5.701C147.264,362.147,147.505,360.175,147.491,357.919z"/>
<path fill-rule="evenodd" clip-rule="evenodd" fill="#FBFDFA" d="M181.538,372.55c-1.771,0-3.197-0.018-4.622,0.008
	c-0.593,0.011-0.824-0.427-1.123-0.781c-2.811-3.33-5.625-6.658-8.411-10.009c-0.42-0.505-0.844-0.747-1.512-0.716
	c-1.158,0.053-2.321,0.054-3.479,0.001c-0.732-0.034-0.963,0.205-0.954,0.945c0.036,3.12-0.017,6.24,0.034,9.359
	c0.015,0.918-0.213,1.237-1.187,1.221c-2.718-0.045-2.719,0.001-2.719-2.773c0-8.32,0.014-16.64-0.019-24.959
	c-0.003-0.912,0.197-1.257,1.174-1.22c3.671,0.139,7.366-0.273,11.015,0.337c3.784,0.633,6.042,2.711,6.673,5.944
	c0.714,3.66-0.777,7.152-3.905,9.105c-0.54,0.337-1.111,0.623-1.752,0.979C174.286,364.106,177.794,368.191,181.538,372.55z
	 M161.453,352.449c0,1.476,0.009,2.951-0.005,4.427c-0.005,0.53,0.035,0.943,0.739,0.931c1.833-0.032,3.676,0.12,5.495-0.152
	c3.204-0.478,4.887-2.665,4.762-6.086c-0.098-2.694-1.801-4.239-5.048-4.447c-1.668-0.107-3.347-0.03-5.02-0.087
	c-0.752-0.025-0.956,0.283-0.937,0.988C161.481,349.497,161.453,350.974,161.453,352.449z"/>
<path fill-rule="evenodd" clip-rule="evenodd" fill="#FBFDFA" d="M347.543,373.036c-3.327,0.077-6.493-0.657-9.565-1.893
	c-0.588-0.237-0.915-0.51-0.874-1.21c0.061-1.036,0.008-2.079,0.021-3.119c0.003-0.265-0.125-0.604,0.148-0.779
	c0.305-0.195,0.505,0.123,0.714,0.279c2.496,1.858,5.319,2.879,8.382,3.282c1.973,0.259,3.908,0.08,5.782-0.61
	c1.038-0.382,1.913-1.005,2.542-1.923c1.468-2.143,0.628-4.992-1.79-5.978c-2.505-1.021-5.22-1.118-7.829-1.686
	c-1.136-0.247-2.249-0.549-3.309-1.027c-2.572-1.16-4.132-3.084-4.417-5.937c-0.306-3.055,0.808-5.462,3.337-7.22
	c2.222-1.544,4.74-2.079,7.375-2.105c3.183-0.032,6.27,0.554,9.269,1.637c0.717,0.259,0.999,0.63,0.939,1.395
	c-0.068,0.875,0,1.759-0.024,2.638c-0.008,0.294,0.171,0.693-0.194,0.861c-0.293,0.135-0.487-0.2-0.709-0.346
	c-3.331-2.182-6.966-3.094-10.933-2.648c-1.089,0.122-2.101,0.477-3.028,1.056c-1.453,0.907-2.142,2.194-1.979,3.934
	c0.156,1.666,1.073,2.699,2.583,3.276c1.996,0.762,4.124,0.923,6.194,1.344c1.485,0.302,2.956,0.627,4.399,1.122
	c6.336,2.172,5.706,9.395,2.561,12.421c-2.185,2.103-4.85,3.001-7.796,3.23C348.745,373.076,348.143,373.036,347.543,373.036z"/>
<path fill-rule="evenodd" clip-rule="evenodd" fill="#FBFDFA" d="M313.327,358.133c0-4.479,0.021-8.958-0.019-13.435
	c-0.007-0.849,0.252-1.075,1.08-1.07c5.638,0.032,11.276,0.035,16.914-0.002c0.904-0.006,1.158,0.269,1.149,1.158
	c-0.024,2.363,0.016,2.363-2.291,2.363c-3.958,0-7.917,0.021-11.875-0.018c-0.817-0.008-1.119,0.192-1.09,1.056
	c0.062,1.877,0.07,3.76-0.002,5.637c-0.037,0.949,0.34,1.125,1.186,1.118c4.238-0.034,8.478,0.016,12.715-0.038
	c1.022-0.013,1.402,0.214,1.364,1.314c-0.079,2.208-0.013,2.21-2.209,2.21c-3.958,0-7.917,0.034-11.875-0.024
	c-0.977-0.014-1.197,0.297-1.179,1.215c0.055,2.798,0.048,5.598,0.003,8.396c-0.014,0.845,0.266,1.092,1.093,1.086
	c4.318-0.033,8.637,0.013,12.955-0.036c0.962-0.011,1.223,0.291,1.207,1.224c-0.039,2.266,0.004,2.267-2.287,2.267
	c-5.238,0-10.476-0.02-15.714,0.02c-0.884,0.007-1.154-0.211-1.144-1.125C313.354,367.01,313.327,362.571,313.327,358.133z"/>
<path fill-rule="evenodd" clip-rule="evenodd" fill="#FBFDFA" d="M184.404,310.546c0-4.438,0.027-8.877-0.022-13.315
	c-0.01-0.954,0.271-1.203,1.209-1.196c5.558,0.042,11.116,0.047,16.674-0.004c0.996-0.009,1.181,0.332,1.164,1.228
	c-0.043,2.333-0.005,2.334-2.311,2.334c-3.918,0-7.837,0.021-11.756-0.017c-0.804-0.008-1.124,0.164-1.093,1.042
	c0.066,1.917,0.065,3.84,0,5.757c-0.03,0.885,0.313,1.05,1.106,1.044c4.238-0.032,8.477,0.017,12.715-0.038
	c1.014-0.013,1.395,0.192,1.348,1.3c-0.092,2.189-0.021,2.192-2.222,2.192c-3.958,0-7.917,0.023-11.875-0.019
	c-0.835-0.008-1.087,0.219-1.071,1.065c0.052,2.838,0.05,5.678,0.001,8.516c-0.015,0.83,0.202,1.087,1.057,1.079
	c4.318-0.042,8.637,0.004,12.955-0.039c0.876-0.009,1.168,0.197,1.151,1.12c-0.044,2.367,0.003,2.368-2.408,2.368
	c-5.078,0-10.157-0.027-15.234,0.022c-1.058,0.011-1.436-0.219-1.417-1.366C184.447,319.263,184.404,314.904,184.404,310.546z"/>
<path fill-rule="evenodd" clip-rule="evenodd" fill="#FBFDFA" d="M189.42,358.296c2.607-2.8,5.214-5.601,7.822-8.4
	c1.662-1.783,3.354-3.54,4.973-5.361c0.585-0.658,1.188-0.966,2.072-0.907c1.06,0.069,2.127,0.017,3.544,0.017
	c-1.678,1.771-3.119,3.292-4.561,4.813c-2.557,2.697-5.096,5.412-7.687,8.076c-0.538,0.553-0.551,0.86-0.037,1.437
	c3.965,4.443,7.895,8.917,11.827,13.389c0.277,0.315,0.682,0.557,0.753,1.189c-1.49,0-2.949-0.008-4.408,0.004
	c-0.535,0.004-0.747-0.415-1.029-0.731c-3.324-3.73-6.66-7.451-9.945-11.216c-0.634-0.727-0.904-0.634-1.619-0.027
	c-1.69,1.434-2.194,3.137-2.011,5.28c0.163,1.905,0.009,3.836,0.046,5.755c0.014,0.732-0.242,0.942-0.969,0.956
	c-2.993,0.055-2.992,0.08-2.992-2.872c0-8.237,0.017-16.475-0.022-24.712c-0.005-1.006,0.182-1.399,1.294-1.371
	c2.675,0.068,2.676,0.009,2.676,2.738c0,3.519,0,7.038,0,10.557c0,0.434,0,0.868,0,1.302
	C189.239,358.24,189.33,358.268,189.42,358.296z"/>
<path fill-rule="evenodd" clip-rule="evenodd" fill="#FBFDFA" d="M255.189,372.553c0.623-1.741,1.188-3.348,1.771-4.948
	c2.769-7.599,5.559-15.191,8.294-22.803c0.302-0.84,0.644-1.26,1.585-1.173c1.305,0.121,2.862-0.46,3.867,0.214
	c1.008,0.676,1.068,2.32,1.519,3.545c2.916,7.937,5.796,15.885,8.687,23.831c0.484,1.332,0.481,1.333-0.946,1.335
	c-2.762,0.004-2.759,0.003-3.656-2.575c-0.537-1.543-1.115-3.074-1.619-4.628c-0.22-0.677-0.574-0.905-1.29-0.897
	c-3.476,0.037-6.952,0.034-10.428,0.002c-0.697-0.006-1.057,0.173-1.286,0.882c-0.688,2.123-1.485,4.209-2.191,6.327
	c-0.226,0.678-0.566,0.956-1.296,0.906C257.254,372.504,256.3,372.553,255.189,372.553z M268.287,347.535
	c-0.177,0.136-0.264,0.167-0.284,0.223c-1.518,4.193-3.025,8.389-4.547,12.58c-0.306,0.843,0.211,0.828,0.778,0.826
	c2.594-0.004,5.188-0.042,7.781,0.018c1.083,0.025,1.068-0.357,0.759-1.191c-1.121-3.023-2.186-6.067-3.273-9.103
	C269.104,349.785,268.702,348.683,268.287,347.535z"/>
<path fill-rule="evenodd" clip-rule="evenodd" fill="#FBFDFA" d="M212.56,358.054c0-4.439-0.002-8.879,0.003-13.319
	c0.001-0.489-0.172-1.108,0.681-1.088c3.594,0.083,7.215-0.331,10.776,0.296c5.194,0.914,7.56,3.871,7.47,9.039
	c-0.073,4.261-3.419,7.838-7.952,8.582c-1.993,0.327-3.99,0.216-5.985,0.2c-0.86-0.007-1.073,0.279-1.061,1.094
	c0.042,2.879-0.012,5.76,0.033,8.639c0.013,0.848-0.269,1.076-1.096,1.075c-2.87-0.002-2.87,0.028-2.87-2.878
	C212.56,365.814,212.56,361.934,212.56,358.054z M216.511,352.681c0,1.639-0.005,3.278,0.003,4.917
	c0.002,0.385-0.078,0.855,0.543,0.849c2.311-0.023,4.652,0.231,6.89-0.57c2.367-0.847,3.645-3.077,3.473-5.944
	c-0.145-2.396-1.51-3.981-3.996-4.587c-2.087-0.508-4.216-0.246-6.328-0.289c-0.601-0.012-0.583,0.418-0.583,0.827
	C216.511,349.483,216.512,351.082,216.511,352.681z"/>
<path fill-rule="evenodd" clip-rule="evenodd" fill="#FBFDFA" d="M288.099,357.997c-0.046,3.021,0.526,5.733,2.263,8.068
	c2.287,3.075,5.51,3.898,9.142,3.547c2.865-0.277,5.376-1.428,7.603-3.231c0.208-0.168,0.395-0.507,0.688-0.391
	c0.378,0.15,0.186,0.558,0.217,0.855c0.026,0.237,0.005,0.479,0.005,0.719c0,3.03,0,3.03-2.817,4.122
	c-4.326,1.676-8.722,1.986-13.106,0.365c-4.564-1.688-6.881-5.296-7.725-9.896c-0.657-3.579-0.558-7.172,0.734-10.632
	c2.225-5.959,7.393-8.547,13.683-8.403c2.95,0.068,5.741,0.89,8.411,2.138c0.565,0.264,0.88,0.575,0.836,1.261
	c-0.063,0.955-0.005,1.917-0.022,2.876c-0.005,0.261,0.144,0.613-0.14,0.769c-0.352,0.192-0.581-0.164-0.815-0.347
	c-2.248-1.754-4.722-2.91-7.596-3.26c-5.705-0.695-10.149,2.574-11.094,8.258C288.18,355.92,288.071,357.03,288.099,357.997z"/>
<path fill-rule="evenodd" clip-rule="evenodd" fill="#FBFDFA" d="M231.73,318.4c0,1.308-0.01,2.546,0.005,3.784
	c0.005,0.431-0.069,0.734-0.516,0.955c-4.725,2.332-9.617,3.166-14.741,1.568c-3.671-1.145-6.18-3.617-7.512-7.192
	c-1.632-4.382-1.684-8.865-0.191-13.275c1.917-5.665,6.859-8.797,13.353-8.697c3.129,0.048,6.065,0.854,8.885,2.174
	c0.551,0.257,0.758,0.585,0.73,1.188c-0.047,0.997-0.002,1.999-0.021,2.998c-0.005,0.253,0.15,0.629-0.208,0.717
	c-0.167,0.042-0.423-0.165-0.603-0.305c-1.814-1.415-3.776-2.517-6.041-3.053c-6.121-1.452-10.941,1.19-12.495,6.944
	c-0.763,2.826-0.763,5.699-0.031,8.534c0.432,1.675,1.164,3.244,2.398,4.5c3.147,3.203,6.959,3.366,11.003,2.308
	c1.802-0.471,3.385-1.395,4.858-2.521C230.905,318.796,231.123,318.413,231.73,318.4z"/>
<path fill-rule="evenodd" clip-rule="evenodd" fill="#FBFDFA" d="M235.086,408.043c-0.001,3.196,0.04,6.393-0.014,9.589
	c-0.049,2.935-1.358,4.82-3.783,5.241c-3.948,0.685-6.97-0.624-7.02-5.308c-0.068-6.392-0.06-12.785-0.001-19.177
	c0.045-4.983,3.51-6.15,7.316-5.3c2.213,0.494,3.456,2.42,3.494,5.246C235.122,401.57,235.088,404.807,235.086,408.043z
	 M231.826,407.992c-0.01,0-0.02,0-0.03,0c0-3.235,0.044-6.471-0.021-9.705c-0.029-1.413-0.63-1.927-1.886-1.973
	c-1.555-0.057-2.066,0.32-2.328,1.766c-0.078,0.429-0.104,0.871-0.104,1.308c-0.006,5.752-0.007,11.504,0.001,17.256
	c0,0.476,0.059,0.953,0.122,1.425c0.139,1.033,0.762,1.512,1.785,1.576c1.712,0.108,2.428-0.539,2.451-2.426
	C231.853,414.144,231.826,411.067,231.826,407.992z"/>
<path fill-rule="evenodd" clip-rule="evenodd" fill="#FBFDFA" d="M221.41,402.764c0,1.559-0.029,3.119,0.014,4.677
	c0.019,0.685-0.212,0.898-0.889,0.884c-1.838-0.037-3.678-0.003-5.517-0.017c-0.533-0.004-0.925,0.033-0.915,0.741
	c0.043,2.877-0.01,5.756,0.093,8.631c0.057,1.563,1.256,2.348,2.638,1.884c1.078-0.362,1.376-1.267,1.401-2.283
	c0.03-1.199,0.034-2.399,0-3.597c-0.018-0.616,0.185-0.814,0.816-0.84c2.36-0.094,2.369-0.119,2.355,2.274
	c-0.007,1.316,0.074,2.636-0.196,3.943c-0.583,2.817-2.329,4.084-5.5,3.959c-2.687-0.106-4.308-1.647-4.602-4.416
	c-0.071-0.673-0.062-1.357-0.062-2.036c-0.004-5.757-0.003-11.514-0.001-17.271c0-0.479,0.003-0.959,0.032-1.438
	c0.242-4.047,3.638-6.17,7.403-4.62c2.163,0.891,2.761,2.763,2.878,4.848c0.087,1.554,0.017,3.117,0.017,4.675
	C221.387,402.764,221.398,402.764,221.41,402.764z M218.24,401.915c0-1.116,0.001-2.231-0.001-3.347
	c0-0.119-0.015-0.239-0.035-0.356c-0.223-1.302-0.958-1.931-2.194-1.879c-1.084,0.045-1.741,0.67-1.82,1.951
	c-0.093,1.509-0.074,3.025-0.078,4.538c-0.01,3.229-0.004,3.211,3.243,3.093c0.663-0.024,0.928-0.209,0.899-0.893
	C218.212,403.989,218.243,402.951,218.24,401.915z"/>
<path fill-rule="evenodd" clip-rule="evenodd" fill="#FBFDFA" d="M236.526,358.07c0-4.436,0.027-8.872-0.022-13.307
	c-0.01-0.907,0.248-1.146,1.137-1.141c2.729,0.019,2.73-0.018,2.73,2.761c0,7.153,0.02,14.307-0.023,21.459
	c-0.006,0.998,0.253,1.279,1.256,1.265c4.035-0.057,8.072-0.002,12.108-0.041c0.829-0.008,1.087,0.225,1.08,1.071
	c-0.022,2.415,0.017,2.415-2.349,2.415c-4.956,0-9.911-0.019-14.866,0.019c-0.843,0.006-1.076-0.238-1.068-1.074
	C236.547,367.021,236.526,362.546,236.526,358.07z"/>
<path fill-rule="evenodd" clip-rule="evenodd" fill="#FBFDFA" d="M187.566,390.7c0-1.558-0.029-3.117,0.016-4.673
	c0.016-0.528-0.408-1.381,0.751-1.346c1.151,0.035,0.642,0.887,0.701,1.41c0.076,0.67,0.025,1.356,0.019,2.035
	c-0.005,0.498,0.138,0.66,0.633,0.386c0.415-0.229,0.86-0.451,1.318-0.546c2.042-0.424,3.523,0.55,4.015,2.594
	c0.275,1.145,0.296,2.292-0.004,3.437c-0.622,2.369-2.598,3.495-4.959,2.829c-0.305-0.086-0.617-0.263-0.915-0.243
	c-1.576,0.108-1.574,0.125-1.574-1.449C187.566,393.656,187.566,392.178,187.566,390.7z M189.054,392.67
	c0,0.599,0.009,1.197-0.003,1.795c-0.007,0.382,0.062,0.668,0.454,0.875c1.911,1.008,3.935-0.091,4.08-2.252
	c0.035-0.516,0.032-1.039-0.012-1.554c-0.133-1.541-0.881-2.246-2.267-2.178c-1.604,0.079-2.252,0.756-2.253,2.356
	C189.052,392.032,189.052,392.351,189.054,392.67z"/>
<path fill-rule="evenodd" clip-rule="evenodd" fill="#FBFDFA" d="M196.456,388.276c1.196-0.396,1.752-0.014,2.12,1.012
	c0.59,1.646,1.32,3.243,2.082,5.08c0.772-1.839,1.534-3.453,2.124-5.128c0.381-1.082,0.986-1.304,2.053-0.955
	c-1.589,3.72-3.182,7.413-4.737,11.123c-0.346,0.824-1.045,0.635-1.51,0.47c-0.586-0.208-0.046-0.729,0.108-0.962
	c1.156-1.742,1.036-3.397,0.073-5.217C197.861,391.983,197.229,390.122,196.456,388.276z"/>
<path fill-rule="evenodd" clip-rule="evenodd" fill="#FBFDFA" d="M216.153,391.546c-0.36,0-0.728-0.052-1.078,0.009
	c-1.194,0.208-1.436-0.313-1.435-1.436c0-1.118,0.332-1.474,1.418-1.374c0.951,0.087,1.917,0.041,2.875,0.011
	c0.591-0.019,0.917,0.147,0.841,0.804c-0.032,0.276-0.043,0.565,0.002,0.837c0.165,0.977-0.274,1.271-1.188,1.158
	C217.118,391.498,216.632,391.546,216.153,391.546z"/>
<path fill-rule="evenodd" clip-rule="evenodd" fill="#7FC067" d="M294.314,159.88c0.102-0.16,0.301-0.225,0.39-0.099
	c0.134,0.188-0.126,0.201-0.225,0.284C294.424,160.003,294.369,159.941,294.314,159.88z"/>
<path fill-rule="evenodd" clip-rule="evenodd" fill="#7FC067" d="M294.479,160.065c-0.152,0.096-0.304,0.191-0.457,0.287
	c-0.058-0.069-0.116-0.139-0.174-0.208c0.155-0.088,0.31-0.176,0.465-0.264C294.369,159.941,294.424,160.003,294.479,160.065z"/>
<path fill-rule="evenodd" clip-rule="evenodd" fill="#7FC067" d="M294.023,160.352c-0.099,0.052-0.197,0.104-0.295,0.156
	c-0.068-0.086-0.137-0.171-0.205-0.257c0.109-0.036,0.218-0.071,0.327-0.107C293.907,160.213,293.965,160.283,294.023,160.352z"/>
<path fill-rule="evenodd" clip-rule="evenodd" fill="#7FC067" d="M143.034,155.534c-0.102-0.106-0.204-0.213-0.306-0.32
	c0.21-0.17,0.357-0.04,0.501,0.105C143.165,155.392,143.1,155.463,143.034,155.534z"/>
<path fill-rule="evenodd" clip-rule="evenodd" fill="#7FC067" d="M143.229,155.32c0.103,0.04,0.206,0.08,0.309,0.12
	c-0.066,0.084-0.132,0.169-0.198,0.253c-0.102-0.053-0.204-0.106-0.306-0.159C143.1,155.463,143.165,155.392,143.229,155.32z"/>
<path fill-rule="evenodd" clip-rule="evenodd" fill="#7FC067" d="M219.541,73.08c0.107,0.175,0.152,0.22,0.161,0.271
	c0.012,0.071,0.015,0.154-0.011,0.219c-0.046,0.113-0.122,0.107-0.146-0.012C219.525,73.458,219.541,73.351,219.541,73.08z"/>
<path fill-rule="evenodd" clip-rule="evenodd" fill="#7FC067" d="M239.547,310.493c-0.006-1.969,0.192-3.911,0.891-5.767
	c1.446-3.837,4.476-5.896,8.571-5.851c4.048,0.043,7.1,2.207,8.386,6.098c1.171,3.545,1.178,7.167,0.139,10.733
	c-1.283,4.402-4.74,6.708-9.433,6.47c-4.094-0.207-7.289-3.187-8.19-7.635C239.64,313.205,239.538,311.854,239.547,310.493z"/>
<path fill-rule="evenodd" clip-rule="evenodd" fill="#7FC067" d="M147.491,357.919c0.014,2.256-0.228,4.229-0.962,6.116
	c-1.477,3.794-4.455,5.748-8.661,5.701c-3.85-0.043-6.868-2.149-8.169-5.885c-1.329-3.817-1.323-7.698,0.01-11.514
	c1.32-3.78,4.333-5.866,8.277-5.91c4.041-0.045,7.074,1.979,8.531,5.744c0.301,0.778,0.539,1.594,0.68,2.415
	C147.4,355.764,147.582,356.955,147.491,357.919z"/>
<path fill-rule="evenodd" clip-rule="evenodd" fill="#7FC067" d="M161.453,352.449c0-1.476,0.028-2.952-0.013-4.427
	c-0.019-0.705,0.185-1.013,0.937-0.988c1.673,0.057,3.352-0.02,5.02,0.087c3.247,0.208,4.95,1.753,5.048,4.447
	c0.125,3.421-1.558,5.608-4.762,6.086c-1.819,0.271-3.663,0.12-5.495,0.152c-0.705,0.012-0.744-0.4-0.739-0.931
	C161.462,355.4,161.453,353.925,161.453,352.449z"/>
<path fill-rule="evenodd" clip-rule="evenodd" fill="#7FC067" d="M268.287,347.535c0.416,1.148,0.817,2.25,1.213,3.354
	c1.088,3.035,2.153,6.079,3.273,9.103c0.309,0.834,0.324,1.217-0.759,1.191c-2.593-0.06-5.188-0.022-7.781-0.018
	c-0.567,0.001-1.084,0.017-0.778-0.826c1.522-4.191,3.029-8.387,4.547-12.58C268.022,347.703,268.109,347.671,268.287,347.535z"/>
<path fill-rule="evenodd" clip-rule="evenodd" fill="#7FC067" d="M216.511,352.681c0-1.599,0-3.198,0.001-4.797
	c0-0.409-0.018-0.839,0.583-0.827c2.112,0.043,4.241-0.22,6.328,0.289c2.486,0.605,3.852,2.191,3.996,4.587
	c0.172,2.867-1.105,5.097-3.473,5.944c-2.238,0.801-4.579,0.547-6.89,0.57c-0.622,0.006-0.542-0.463-0.543-0.849
	C216.506,355.959,216.511,354.32,216.511,352.681z"/>
<path fill-rule="evenodd" clip-rule="evenodd" fill="#7FC067" d="M231.826,407.992c0,3.076,0.027,6.152-0.01,9.228
	c-0.023,1.887-0.739,2.534-2.451,2.426c-1.023-0.064-1.646-0.543-1.785-1.576c-0.063-0.472-0.122-0.95-0.122-1.425
	c-0.008-5.752-0.007-11.504-0.001-17.256c0-0.437,0.027-0.879,0.104-1.308c0.261-1.446,0.773-1.823,2.328-1.766
	c1.256,0.046,1.857,0.561,1.886,1.973c0.065,3.234,0.021,6.47,0.021,9.705C231.806,407.992,231.816,407.992,231.826,407.992z"/>
<path fill-rule="evenodd" clip-rule="evenodd" fill="#7FC067" d="M218.242,401.915c0.001,1.036-0.03,2.074,0.013,3.108
	c0.028,0.683-0.236,0.868-0.899,0.893c-3.247,0.118-3.253,0.136-3.243-3.093c0.004-1.513-0.015-3.029,0.078-4.538
	c0.079-1.281,0.736-1.906,1.82-1.951c1.236-0.052,1.971,0.577,2.194,1.879c0.02,0.117,0.035,0.237,0.035,0.356
	C218.241,399.684,218.24,400.799,218.242,401.915z"/>
<path fill-rule="evenodd" clip-rule="evenodd" fill="#7FC067" d="M189.053,392.67c0-0.319,0-0.639,0-0.958
	c0.001-1.6,0.649-2.277,2.253-2.356c1.385-0.068,2.134,0.637,2.267,2.178c0.044,0.515,0.047,1.039,0.012,1.554
	c-0.145,2.161-2.169,3.261-4.08,2.252c-0.392-0.207-0.461-0.493-0.454-0.875C189.063,393.868,189.054,393.269,189.053,392.67z"/>
</svg>
