<?xml version="1.0" encoding="utf-8"?>
<!-- Generator: Adobe Illustrator 16.0.0, SVG Export Plug-In . SVG Version: 6.00 Build 0)  -->
<!DOCTYPE svg PUBLIC "-//W3C//DTD SVG 1.1//EN" "http://www.w3.org/Graphics/SVG/1.1/DTD/svg11.dtd">
<svg version="1.1" id="Layer_1" xmlns="http://www.w3.org/2000/svg" xmlns:xlink="http://www.w3.org/1999/xlink" x="0px" y="0px"
	 width="71.25px" height="70.25px" viewBox="0 0 71.25 70.25" enable-background="new 0 0 71.25 70.25" xml:space="preserve">
<circle fill="#FFFFFF" cx="35.304" cy="35.375" r="32"/>
<g enable-background="new    ">
	<path fill="#FA4616" d="M27.872,20.572c0.045,1.909-1.319,3.229-3.137,3.229c-1.637,0-3.001-1.319-2.956-3.229
		c-0.045-2.001,1.41-3.229,3.047-3.229C26.553,17.344,27.872,18.571,27.872,20.572z M21.915,48.719V26.483h5.957v22.235H21.915z"/>
	<path fill="#FA4616" d="M32.053,33.168c0-2.456-0.137-4.593-0.182-6.685h5.139l0.272,2.546h0.091
		c1.183-1.773,3.092-2.91,5.411-2.91c4.229,0,5.911,3.365,5.911,8.321v14.278h-5.957V34.805c0-1.91-0.454-3.684-2.182-3.684
		c-1.001,0-1.819,0.683-2.229,2.001c-0.182,0.455-0.318,1.183-0.318,2.046v13.551h-5.957V33.168z"/>
</g>
</svg>
