<?xml version="1.0" encoding="utf-8"?>
<!-- Generator: Adobe Illustrator 16.0.0, SVG Export Plug-In . SVG Version: 6.00 Build 0)  -->
<!DOCTYPE svg PUBLIC "-//W3C//DTD SVG 1.1//EN" "http://www.w3.org/Graphics/SVG/1.1/DTD/svg11.dtd">
<svg version="1.1" id="Layer_1" xmlns="http://www.w3.org/2000/svg" xmlns:xlink="http://www.w3.org/1999/xlink" x="0px" y="0px"
	 width="146px" height="257px" viewBox="0 0 146 257" enable-background="new 0 0 146 257" xml:space="preserve">
<path fill="#F36B37" d="M48.697,65.503c0-8.923-3.733-13.387-11.195-13.387c-6.98,0-10.466,4.463-10.466,13.387v36.262h21.661
	V65.503z M48.697,137.592h15.819v21.854c0,20.285-9.004,30.425-27.014,30.425c-17.364,0-26.04-10.14-26.04-30.425V65.503
	c0-10.224,2.225-17.929,6.69-23.123c4.46-5.189,10.91-7.789,19.35-7.789c18.01,0,27.014,10.307,27.014,30.912v48.433H27.036v45.51
	c0,8.927,3.485,13.387,10.466,13.387c7.461,0,11.195-4.46,11.195-13.387V137.592z"/>
<path fill="#F36B37" d="M118.79,65.257c0-4.217-0.771-7.502-2.312-9.855c-1.542-2.351-4.586-3.529-9.126-3.529
	c-4.544,0-7.587,1.178-9.128,3.529c-1.542,2.354-2.311,5.639-2.311,9.855v94.676c0,4.222,0.768,7.424,2.311,9.615
	c1.541,2.191,4.584,3.285,9.128,3.285c4.54,0,7.583-1.135,9.126-3.407c1.541-2.272,2.312-5.598,2.312-9.98V65.257z M79.609,64.772
	c0-9.735,2.268-17.198,6.812-22.392c4.541-5.189,11.519-7.789,20.932-7.789c9.246,0,16.185,2.6,20.809,7.789
	c4.625,5.194,6.936,12.656,6.936,22.392v95.161c0,9.736-2.312,17.159-6.936,22.271c-4.624,5.111-11.563,7.667-20.809,7.667
	c-9.414,0-16.391-2.556-20.932-7.667c-4.543-5.111-6.812-12.534-6.812-22.271V64.772z"/>
<rect x="24.973" y="13.621" fill="#F36B37" width="26.03" height="13.897"/>
<path fill="#6E6F72" d="M14.305,217.18h3.286c1.908,0.018,2.755-0.812,2.755-2.316c0-1.5-0.847-2.313-2.755-2.313h-3.286V217.18z
	 M12.627,211.138h5.529c2.526,0,3.87,1.381,3.87,3.727c0,2.352-1.343,3.748-3.87,3.73h-3.851v5.159h-1.678V211.138z"/>
<polygon fill="#6E6F72" points="25.005,211.138 33.713,211.138 33.713,212.552 26.683,212.552 26.683,216.561 33.236,216.561 
	33.236,217.975 26.683,217.975 26.683,222.339 33.766,222.339 33.766,223.753 25.005,223.753 "/>
<path fill="#6E6F72" d="M41.904,216.952c1.554,0,2.915-0.406,2.915-2.244c0-1.254-0.672-2.156-2.243-2.156h-4.169v4.4H41.904z
	 M36.728,211.138h5.938c2.383,0,3.832,1.272,3.832,3.303c0,1.539-0.654,2.775-2.191,3.199v0.036c1.467,0.282,1.75,1.378,1.89,2.597
	c0.089,1.219,0.036,2.633,0.744,3.481h-1.873c-0.478-0.514-0.212-1.874-0.459-3.111c-0.194-1.218-0.477-2.277-2.103-2.277h-4.097
	v5.388h-1.68V211.138z"/>
<polygon fill="#6E6F72" points="49.759,211.138 58.044,211.138 58.044,212.552 51.439,212.552 51.439,216.561 57.232,216.561 
	57.232,217.975 51.439,217.975 51.439,223.753 49.759,223.753 "/>
<path fill="#6E6F72" d="M66.163,222.639c3.075,0,4.362-2.648,4.362-5.192c0-2.543-1.288-5.194-4.362-5.194
	c-3.074,0-4.364,2.651-4.364,5.194C61.799,219.991,63.089,222.639,66.163,222.639 M66.163,210.838c4.01,0,6.042,3.164,6.042,6.608
	c0,3.445-2.032,6.606-6.042,6.606c-4.011,0-6.042-3.161-6.042-6.606C60.121,214.002,62.152,210.838,66.163,210.838"/>
<path fill="#6E6F72" d="M80.362,216.952c1.554,0,2.916-0.406,2.916-2.244c0-1.254-0.673-2.156-2.244-2.156h-4.169v4.4H80.362z
	 M75.185,211.138h5.937c2.384,0,3.833,1.272,3.833,3.303c0,1.539-0.654,2.775-2.191,3.199v0.036c1.466,0.282,1.749,1.378,1.89,2.597
	c0.09,1.219,0.037,2.633,0.743,3.481h-1.873c-0.478-0.514-0.212-1.874-0.459-3.111c-0.194-1.218-0.477-2.277-2.102-2.277h-4.098
	v5.388h-1.679V211.138z"/>
<polygon fill="#6E6F72" points="88.252,211.138 90.549,211.138 94.523,221.737 98.515,211.138 100.813,211.138 100.813,223.753 
	99.224,223.753 99.224,213.258 99.187,213.258 95.248,223.753 93.817,223.753 89.876,213.258 89.842,213.258 89.842,223.753 
	88.252,223.753 "/>
<rect x="104.605" y="211.138" fill="#6E6F72" width="1.678" height="12.616"/>
<polygon fill="#6E6F72" points="110.019,211.138 111.803,211.138 118.444,221.366 118.479,221.366 118.479,211.138 120.07,211.138 
	120.07,223.753 118.231,223.753 111.643,213.628 111.607,213.628 111.607,223.753 110.019,223.753 "/>
<path fill="#6E6F72" d="M133.153,222.182c-0.987,1.305-2.578,1.871-4.044,1.871c-3.762,0-6.006-3.054-6.006-6.359
	c0-3.673,2.014-6.855,6.006-6.855c2.739,0,4.963,1.236,5.425,4.187h-1.68c-0.335-1.907-1.854-2.772-3.745-2.772
	c-3.057,0-4.327,2.666-4.327,5.352c0,2.633,1.518,5.035,4.327,5.035c2.614,0,4.133-1.8,4.044-4.116h-4.028v-1.414h5.53v6.644h-1.059
	L133.153,222.182z"/>
<polygon fill="#6E6F72" points="24.021,244.962 22.273,244.962 19.393,234.362 19.357,234.362 16.443,244.962 14.694,244.962 
	11.46,232.35 13.175,232.35 15.648,242.842 15.682,242.842 18.511,232.35 20.33,232.35 23.121,242.842 23.155,242.842 
	25.718,232.35 27.396,232.35 "/>
<path fill="#6E6F72" d="M34.67,243.851c3.074,0,4.363-2.651,4.363-5.195c0-2.544-1.289-5.194-4.363-5.194s-4.363,2.65-4.363,5.194
	C30.307,241.199,31.596,243.851,34.67,243.851 M34.67,232.05c4.01,0,6.042,3.163,6.042,6.606c0,3.445-2.033,6.605-6.042,6.605
	c-4.011,0-6.041-3.16-6.041-6.605C28.629,235.213,30.659,232.05,34.67,232.05"/>
<path fill="#6E6F72" d="M48.286,238.163c1.554,0,2.913-0.409,2.913-2.247c0-1.254-0.669-2.153-2.243-2.153h-4.169v4.4H48.286z
	 M43.109,232.35h5.936c2.384,0,3.833,1.271,3.833,3.303c0,1.539-0.653,2.775-2.19,3.199v0.035c1.466,0.281,1.75,1.379,1.89,2.595
	c0.089,1.221,0.036,2.632,0.743,3.48h-1.872c-0.477-0.51-0.213-1.871-0.46-3.107c-0.194-1.221-0.478-2.28-2.101-2.28h-4.1v5.387
	h-1.678V232.35z"/>
<polygon fill="#6E6F72" points="55.557,232.35 57.234,232.35 57.234,238.64 63.63,232.35 65.803,232.35 60.486,237.437 
	66.014,244.962 63.896,244.962 59.337,238.587 57.234,240.547 57.234,244.962 55.557,244.962 "/>
<path fill="#6E6F72" d="M69.366,238.391h3.284c1.909,0.018,2.756-0.812,2.756-2.315c0-1.5-0.847-2.313-2.756-2.313h-3.284V238.391z
	 M67.687,232.35h5.529c2.525,0,3.869,1.378,3.869,3.727c0,2.351-1.344,3.745-3.869,3.73h-3.85v5.156h-1.679V232.35z"/>
<polygon fill="#6E6F72" points="79.479,232.35 81.158,232.35 81.158,243.551 87.836,243.551 87.836,244.962 79.479,244.962 "/>
<path fill="#6E6F72" d="M91.82,239.75h4.275l-2.101-5.88h-0.036L91.82,239.75z M93.076,232.35h1.854l4.929,12.612h-1.854
	l-1.38-3.798h-5.333l-1.413,3.798h-1.731L93.076,232.35z"/>
<path fill="#6E6F72" d="M110.31,236.147c-0.37-1.785-1.767-2.686-3.531-2.686c-3.005,0-4.275,2.473-4.275,5.105
	c0,2.882,1.27,5.284,4.291,5.284c2.191,0,3.499-1.557,3.638-3.641h1.68c-0.335,3.163-2.261,5.052-5.458,5.052
	c-3.905,0-5.829-2.894-5.829-6.57c0-3.673,2.083-6.641,5.969-6.641c2.633,0,4.823,1.412,5.195,4.098H110.31z"/>
<polygon fill="#6E6F72" points="114.544,232.35 123.253,232.35 123.253,233.763 116.224,233.763 116.224,237.772 122.775,237.772 
	122.775,239.186 116.224,239.186 116.224,243.551 123.306,243.551 123.306,244.962 114.544,244.962 "/>
<path fill="#6E6F72" d="M132.979,236.043c-0.195-1.82-1.379-2.579-3.127-2.579c-1.433,0-2.827,0.51-2.827,2.156
	c0,3.107,8.074,0.917,8.074,5.882c0,2.683-2.633,3.762-4.929,3.762c-2.828,0-5.212-1.396-5.212-4.454h1.59
	c0,2.12,1.766,3.04,3.676,3.04c1.519,0,3.197-0.478,3.197-2.298c0-3.462-8.073-1.181-8.073-5.811c0-2.544,2.261-3.692,4.574-3.692
	c2.58,0,4.558,1.219,4.646,3.993H132.979z"/>
</svg>
