<?xml version="1.0" encoding="utf-8"?>
<!-- Generator: Adobe Illustrator 16.0.0, SVG Export Plug-In . SVG Version: 6.00 Build 0)  -->
<!DOCTYPE svg PUBLIC "-//W3C//DTD SVG 1.1//EN" "http://www.w3.org/Graphics/SVG/1.1/DTD/svg11.dtd">
<svg version="1.1" id="Layer_1" xmlns="http://www.w3.org/2000/svg" xmlns:xlink="http://www.w3.org/1999/xlink" x="0px" y="0px"
	 width="443.978px" height="443.978px" viewBox="0 0 443.978 443.978" enable-background="new 0 0 443.978 443.978"
	 xml:space="preserve">
<g>
	<path fill-rule="evenodd" clip-rule="evenodd" fill="#1FBBB1" d="M376.319,426.819c-99.209,0-198.417,0-297.626,0
		c-0.23-0.132-0.447-0.344-0.692-0.385c-18.595-3.113-30.81-19.325-30.676-39.325c0.465-69.981,0.215-139.967,0.109-209.951
		c-0.008-5.199,1.663-9.161,5.314-12.764c13.474-13.294,26.766-26.772,40.222-40.085c1.852-1.833,2.6-3.658,2.592-6.26
		c-0.085-28.393,0.12-56.789-0.172-85.179c-0.075-7.36,2.061-12.651,8.904-15.687c82.14,0,164.281,0,246.421,0
		c6.844,3.036,8.98,8.328,8.905,15.688c-0.292,28.392-0.087,56.788-0.173,85.182c-0.008,2.603,0.745,4.426,2.596,6.258
		c13.644,13.503,27.15,27.145,40.773,40.668c3.215,3.191,4.762,6.77,4.744,11.375c-0.11,27.594-0.055,55.188-0.055,82.783
		c0,43.458-0.02,86.917,0.016,130.375c0.008,9.129-2.622,17.236-8.438,24.354C393.137,421.149,385.161,424.708,376.319,426.819z
		 M119.608,41.358c-0.06,1-0.119,1.53-0.119,2.062c-0.005,57.203-0.024,114.406,0.083,171.608c0.002,1.602,0.954,3.581,2.107,4.744
		c20.192,20.349,40.46,40.624,60.821,60.803c1.235,1.224,3.387,2.144,5.118,2.153c26.534,0.134,53.069,0.14,79.603-0.007
		c1.841-0.01,4.127-1.007,5.446-2.313c20.181-19.982,40.212-40.117,60.365-60.13c1.864-1.853,2.549-3.699,2.546-6.279
		c-0.064-56.136-0.048-112.272-0.048-168.409c0-1.405,0-2.81,0-4.232C263.268,41.358,191.582,41.358,119.608,41.358z
		 M366.021,402.607c-1.005-1.094-1.583-1.774-2.212-2.403c-30.44-30.447-60.863-60.911-91.404-91.256
		c-1.29-1.282-3.672-2.055-5.55-2.064c-26.125-0.132-52.251-0.048-78.375-0.152c-2.754-0.011-4.674,0.768-6.614,2.714
		c-29.915,30.03-59.903,59.986-89.869,89.964c-0.9,0.901-1.741,1.861-2.986,3.197C181.484,402.607,273.38,402.607,366.021,402.607z
		 M160.961,295.161c-29.756-29.757-59.731-59.732-89.252-89.255c0,59.007,0,118.915,0,178.507
		C101.599,354.523,131.532,324.59,160.961,295.161z M383.184,384.342c0-59.634,0-119.595,0-179.079
		c-29.892,29.891-59.847,59.844-89.544,89.54C323.34,324.501,353.294,354.454,383.184,384.342z M78.101,174.282
		c5.788,5.77,11.794,11.758,17.136,17.083c0-10.729,0-22.629,0-34.137C89.305,163.132,83.316,169.091,78.101,174.282z
		 M359.804,157.33c0,11.534,0,23.495,0,34.867c5.841-5.839,11.823-11.819,17.428-17.422
		C371.568,169.106,365.61,163.142,359.804,157.33z"/>
	<path fill-rule="evenodd" clip-rule="evenodd" fill="#FFFFFF" d="M104.295,17.184c-6.844,3.036-8.979,8.327-8.904,15.687
		c0.292,28.391,0.086,56.786,0.172,85.179c0.008,2.602-0.74,4.427-2.592,6.26c-13.456,13.313-26.749,26.791-40.222,40.085
		c-3.651,3.603-5.322,7.564-5.314,12.764c0.105,69.984,0.355,139.97-0.109,209.951c-0.133,20,12.081,36.212,30.676,39.325
		c0.245,0.041,0.461,0.253,0.692,0.385c-18.668,0-37.337,0-56.005,0c0-136.545,0-273.091,0-409.636
		C49.89,17.184,77.092,17.184,104.295,17.184z"/>
	<path fill-rule="evenodd" clip-rule="evenodd" fill="#FFFFFF" d="M376.319,426.819c8.842-2.111,16.818-5.67,22.766-12.951
		c5.815-7.119,8.445-15.226,8.438-24.354c-0.035-43.458-0.016-86.917-0.016-130.375c0-27.595-0.055-55.189,0.055-82.783
		c0.018-4.605-1.529-8.185-4.744-11.375c-13.623-13.524-27.129-27.165-40.773-40.668c-1.851-1.832-2.604-3.656-2.596-6.258
		c0.086-28.395-0.119-56.791,0.173-85.182c0.075-7.36-2.061-12.652-8.905-15.688c27.183,0,54.365,0,81.578,0
		c0,136.545,0,273.09-0.006,409.636C413.628,426.819,394.973,426.819,376.319,426.819z"/>
	<path fill-rule="evenodd" clip-rule="evenodd" fill="#FFFFFF" d="M119.608,41.358c71.973,0,143.659,0,215.921,0
		c0,1.423,0,2.828,0,4.232c0,56.136-0.016,112.273,0.048,168.409c0.003,2.58-0.682,4.426-2.546,6.279
		c-20.153,20.013-40.184,40.147-60.365,60.13c-1.319,1.305-3.604,2.302-5.446,2.313c-26.534,0.147-53.069,0.142-79.603,0.007
		c-1.731-0.009-3.883-0.929-5.118-2.153c-20.361-20.18-40.629-40.455-60.821-60.803c-1.154-1.163-2.105-3.142-2.107-4.744
		c-0.106-57.203-0.088-114.406-0.083-171.608C119.489,42.888,119.548,42.357,119.608,41.358z M252.115,176.607
		c0.669,0.48,1.647,1.168,2.61,1.875c19.204,14.088,47.606,4.833,54.873-17.878c3.429-10.714,1.973-21.381-0.647-31.917
		c-8.62-34.65-39.306-61.106-74.421-63.201c-35.244-2.103-62.333,12.462-80.352,42.832c-18.724,31.556-12.335,75.095,14.169,100.427
		c20.264,19.367,44.336,27.549,72.05,23.293c8.688-1.334,17.171-4.568,25.473-7.669c6.106-2.281,8.452-9.05,6.226-15
		c-2.121-5.666-8.167-8.837-14.284-7.3c-2.306,0.58-4.506,1.591-6.746,2.428c-9.736,3.641-19.68,5.235-30.135,4.103
		c-30.449-3.298-53.981-29.693-53.408-60.202c0.714-37.953,35.783-65.727,72.833-57.684c26.82,5.823,46.514,29.743,47.116,57.225
		c0.207,9.461-8.414,15.84-16.646,12.18c-5.394-2.399-7.098-7.045-7.424-12.654c-1.482-25.465-28.075-41.783-50.574-31.125
		c-17.884,8.471-25.736,27.832-18.77,46.282c6.474,17.146,26.05,26.47,44.386,20.732
		C243.046,181.912,247.21,179.074,252.115,176.607z"/>
	<path fill-rule="evenodd" clip-rule="evenodd" fill="#FFFFFF" d="M366.021,402.607c-92.642,0-184.537,0-277.011,0
		c1.246-1.336,2.086-2.296,2.986-3.197c29.966-29.979,59.954-59.934,89.869-89.964c1.94-1.947,3.859-2.726,6.614-2.714
		c26.125,0.104,52.25,0.02,78.375,0.152c1.878,0.009,4.26,0.782,5.55,2.064c30.541,30.346,60.964,60.81,91.404,91.256
		C364.438,400.833,365.017,401.513,366.021,402.607z"/>
	<path fill-rule="evenodd" clip-rule="evenodd" fill="#FFFFFF" d="M160.961,295.161c-29.429,29.429-59.362,59.362-89.252,89.252
		c0-59.592,0-119.5,0-178.507C101.23,235.429,131.205,265.404,160.961,295.161z"/>
	<path fill-rule="evenodd" clip-rule="evenodd" fill="#FFFFFF" d="M383.184,384.342c-29.89-29.888-59.844-59.841-89.544-89.539
		c29.697-29.695,59.652-59.649,89.544-89.54C383.184,264.747,383.184,324.708,383.184,384.342z"/>
	<path fill-rule="evenodd" clip-rule="evenodd" fill="#FFFFFF" d="M78.101,174.282c5.215-5.191,11.204-11.15,17.136-17.053
		c0,11.507,0,23.408,0,34.137C89.896,186.041,83.889,180.052,78.101,174.282z"/>
	<path fill-rule="evenodd" clip-rule="evenodd" fill="#FFFFFF" d="M359.804,157.33c5.806,5.812,11.765,11.776,17.428,17.445
		c-5.604,5.603-11.586,11.583-17.428,17.422C359.804,180.825,359.804,168.864,359.804,157.33z"/>
	<path fill-rule="evenodd" clip-rule="evenodd" fill="#1FBBB1" d="M252.115,176.607c-4.905,2.467-9.069,5.305-13.671,6.745
		c-18.336,5.738-37.913-3.586-44.386-20.732c-6.966-18.45,0.886-37.811,18.77-46.282c22.499-10.657,49.091,5.661,50.574,31.125
		c0.327,5.609,2.031,10.255,7.424,12.654c8.232,3.661,16.853-2.719,16.646-12.18c-0.602-27.482-20.296-51.402-47.116-57.225
		c-37.05-8.043-72.119,19.73-72.833,57.684c-0.574,30.508,22.958,56.903,53.408,60.202c10.456,1.132,20.399-0.462,30.135-4.103
		c2.24-0.837,4.44-1.849,6.746-2.428c6.116-1.538,12.163,1.634,14.284,7.3c2.227,5.95-0.119,12.72-6.226,15
		c-8.302,3.101-16.785,6.334-25.473,7.669c-27.714,4.256-51.786-3.926-72.05-23.293c-26.505-25.332-32.893-68.871-14.169-100.427
		c18.019-30.369,45.108-44.934,80.352-42.832c35.115,2.095,65.801,28.551,74.421,63.201c2.621,10.536,4.076,21.203,0.647,31.917
		c-7.267,22.711-35.669,31.967-54.873,17.878C253.762,177.776,252.785,177.088,252.115,176.607z M239.404,149.199
		c0.121-6.011-5.515-11.819-11.619-11.975c-6.367-0.163-12.084,5.324-12.245,11.751c-0.158,6.34,5.372,12.05,11.805,12.189
		C233.526,161.297,239.275,155.593,239.404,149.199z"/>
	<path fill-rule="evenodd" clip-rule="evenodd" fill="#FFFFFF" d="M239.404,149.199c-0.128,6.394-5.877,12.098-12.059,11.965
		c-6.433-0.139-11.963-5.849-11.805-12.189c0.161-6.427,5.878-11.914,12.245-11.751C233.889,137.38,239.524,143.188,239.404,149.199
		z"/>
</g>
</svg>
