<?xml version="1.0" encoding="utf-8"?>
<!-- Generator: Adobe Illustrator 16.0.0, SVG Export Plug-In . SVG Version: 6.00 Build 0)  -->
<!DOCTYPE svg PUBLIC "-//W3C//DTD SVG 1.1//EN" "http://www.w3.org/Graphics/SVG/1.1/DTD/svg11.dtd">
<svg version="1.1" id="Layer_1" xmlns="http://www.w3.org/2000/svg" xmlns:xlink="http://www.w3.org/1999/xlink" x="0px" y="0px"
	 width="443.978px" height="443.978px" viewBox="0 0 443.978 443.978" enable-background="new 0 0 443.978 443.978"
	 xml:space="preserve">
<path fill-rule="evenodd" clip-rule="evenodd" fill="#F04A23" d="M429.323,208.6c0,9.067,0,18.135,0,27.202
	c-0.254,1.016-0.581,2.02-0.751,3.049c-1.815,11.004-2.843,22.204-5.535,32.987c-10.931,43.784-34.271,79.973-68.906,108.733
	c-29.202,24.249-62.689,39.331-100.315,44.975c-5.493,0.823-11.005,1.518-16.509,2.273c-9.067,0-18.135,0-27.202,0
	c-4.852-0.617-9.715-1.15-14.552-1.862c-40.281-5.927-75.876-22.174-106.221-49.311C52.29,343.521,29.804,302.27,22.043,253.108
	c-0.907-5.749-1.576-11.536-2.355-17.306c0-9.067,0-18.135,0-27.202c0.631-4.993,1.164-10,1.907-14.977
	c6.596-44.123,25.15-82.412,56.452-114.271c31.697-32.263,70.036-51.827,114.747-58.81c5.752-0.899,11.539-1.578,17.311-2.358
	c9.067,0,18.135,0,27.202,0c4.994,0.632,10.002,1.172,14.98,1.913c44,6.537,82.297,24.95,114.37,55.787
	c33.043,31.77,53.257,70.396,60.342,115.771C427.878,197.287,428.553,202.951,429.323,208.6z M405.37,222.288
	c0.032-99.166-81.392-180.041-181.375-180.15c-99.379-0.109-180.344,80.715-180.354,180.041
	c-0.01,100.035,80.726,181.601,179.838,181.687C323.68,403.952,405.337,322.435,405.37,222.288z"/>
<path fill-rule="evenodd" clip-rule="evenodd" fill="#FFFFFF" d="M237.307,427.819c5.503-0.755,11.016-1.45,16.509-2.273
	c37.626-5.644,71.114-20.726,100.315-44.975c34.636-28.76,57.976-64.949,68.906-108.733c2.692-10.784,3.72-21.983,5.535-32.987
	c0.17-1.03,0.497-2.034,0.751-3.049c0,64.006,0,128.011,0,192.017C365.318,427.819,301.313,427.819,237.307,427.819z"/>
<path fill-rule="evenodd" clip-rule="evenodd" fill="#FFFFFF" d="M19.688,235.802c0.779,5.77,1.448,11.557,2.355,17.306
	c7.761,49.162,30.247,90.413,67.289,123.539c30.345,27.137,65.939,43.384,106.221,49.311c4.837,0.712,9.7,1.246,14.552,1.862
	c-63.473,0-126.944,0-190.417,0C19.688,363.813,19.688,299.808,19.688,235.802z"/>
<path fill-rule="evenodd" clip-rule="evenodd" fill="#FFFFFF" d="M429.323,208.6c-0.771-5.649-1.445-11.313-2.325-16.946
	c-7.085-45.375-27.299-84.002-60.342-115.771c-32.072-30.836-70.369-49.25-114.37-55.787c-4.978-0.74-9.986-1.28-14.98-1.913
	c64.006,0,128.011,0,192.017,0C429.323,81.656,429.323,145.127,429.323,208.6z"/>
<path fill-rule="evenodd" clip-rule="evenodd" fill="#FFFFFF" d="M210.104,18.184c-5.771,0.78-11.558,1.459-17.311,2.358
	c-44.711,6.983-83.05,26.547-114.747,58.81c-31.301,31.86-49.855,70.148-56.452,114.271c-0.744,4.976-1.276,9.983-1.907,14.977
	c0-63.406,0-126.811,0-190.417C83.16,18.184,146.632,18.184,210.104,18.184z"/>
<path fill-rule="evenodd" clip-rule="evenodd" fill="#FFFFFF" d="M405.37,222.288c-0.033,100.147-81.69,181.665-181.89,181.578
	c-99.112-0.086-179.848-81.652-179.838-181.687c0.01-99.326,80.974-180.15,180.354-180.041
	C323.978,42.247,405.402,123.122,405.37,222.288z M223.874,66.204c-85.84-0.044-156.06,69.932-156.166,155.625
	c-0.107,86.411,70.208,157.831,155.526,157.97c86.297,0.142,158.054-71.37,158.069-157.529
	C381.318,136.808,310.143,66.248,223.874,66.204z"/>
<path fill-rule="evenodd" clip-rule="evenodd" fill="#F04A23" d="M223.874,66.204c86.269,0.044,157.444,70.604,157.429,156.066
	c-0.015,86.159-71.771,157.67-158.069,157.529c-85.318-0.14-155.633-71.56-155.526-157.97
	C67.814,136.135,138.034,66.159,223.874,66.204z M139.177,121.026c2.883,2.726,5.516,4.995,7.893,7.506
	c5.001,5.282,5.088,12.382,0.371,17.215c-4.811,4.93-12.101,4.884-17.496-0.277c-2.494-2.385-4.726-5.045-7.339-7.863
	c-17.582,21.432-27.499,45.267-30.223,72.606c1.834,0,3.276-0.001,4.717,0c13.198,0.011,18.624,3.543,18.57,12.087
	c-0.053,8.39-5.446,11.878-18.373,11.885c-1.564,0-3.128,0-4.972,0c2.819,27.811,12.686,52.129,30.607,74.004
	c2.366-2.617,4.395-5.103,6.672-7.333c5.558-5.439,12.85-5.648,17.785-0.655c4.935,4.994,4.651,12.204-0.828,17.79
	c-2.271,2.316-4.759,4.418-7.268,6.726c21.544,17.658,45.213,27.701,72.426,30.398c0-3.875-0.033-7.322,0.006-10.768
	c0.084-7.383,5.145-12.583,12.136-12.514c6.786,0.066,11.73,5.243,11.82,12.429c0.044,3.547,0.008,7.096,0.008,10.855
	c27.771-2.95,51.752-13.323,73.267-31.143c-2.596-2.403-5.091-4.437-7.258-6.773c-4.768-5.142-4.753-12.183-0.158-16.921
	c4.697-4.844,11.945-4.946,17.207-0.055c2.333,2.17,4.358,4.672,6.732,7.25c17.837-21.624,28.284-45.618,31.107-73.292
	c-3.834,0-7.153,0.023-10.47-0.004c-7.505-0.063-12.732-4.931-12.777-11.875c-0.047-7.129,5.208-12.038,12.966-12.087
	c3.38-0.022,6.761-0.004,10.36-0.004c-2.902-27.458-12.872-51.17-30.447-72.38c-2.304,2.498-4.298,4.832-6.473,6.983
	c-5.786,5.723-13.008,6.066-18.053,0.958c-5.059-5.122-4.711-12.209,1.047-18.05c2.143-2.174,4.579-4.059,7.062-6.233
	c-22.019-17.969-46.321-27.906-74.113-30.642c0,3.929,0.046,7.501-0.01,11.073c-0.11,7.107-5.185,12.255-12.004,12.241
	c-6.811-0.013-11.842-5.168-11.945-12.302c-0.052-3.569-0.009-7.139-0.009-10.997C184.44,93.602,160.67,103.489,139.177,121.026z"/>
<path fill-rule="evenodd" clip-rule="evenodd" fill="#FFFFFF" d="M139.177,121.026c21.493-17.538,45.263-27.424,72.544-30.159
	c0,3.858-0.042,7.428,0.009,10.997c0.103,7.134,5.134,12.289,11.945,12.302c6.819,0.014,11.894-5.134,12.004-12.241
	c0.056-3.571,0.01-7.144,0.01-11.073c27.792,2.735,52.094,12.672,74.113,30.642c-2.483,2.174-4.918,4.059-7.062,6.233
	c-5.758,5.84-6.106,12.928-1.047,18.05c5.045,5.108,12.267,4.765,18.053-0.958c2.175-2.151,4.169-4.485,6.473-6.983
	c17.575,21.21,27.545,44.922,30.447,72.38c-3.6,0-6.98-0.018-10.36,0.004c-7.758,0.05-13.013,4.958-12.966,12.087
	c0.045,6.944,5.271,11.813,12.777,11.875c3.317,0.027,6.636,0.004,10.47,0.004c-2.824,27.675-13.27,51.669-31.107,73.292
	c-2.375-2.578-4.399-5.08-6.732-7.25c-5.262-4.891-12.51-4.789-17.207,0.055c-4.595,4.739-4.609,11.78,0.158,16.921
	c2.167,2.337,4.662,4.371,7.258,6.773c-21.515,17.819-45.497,28.192-73.267,31.143c0-3.76,0.036-7.309-0.008-10.855
	c-0.089-7.187-5.034-12.363-11.82-12.429c-6.991-0.068-12.052,5.131-12.136,12.514c-0.039,3.446-0.006,6.892-0.006,10.768
	c-27.213-2.697-50.882-12.74-72.426-30.398c2.509-2.308,4.997-4.41,7.268-6.726c5.479-5.586,5.763-12.795,0.828-17.79
	c-4.935-4.993-12.227-4.784-17.785,0.655c-2.278,2.229-4.306,4.715-6.672,7.333c-17.921-21.875-27.788-46.193-30.607-74.004
	c1.844,0,3.408,0,4.972,0c12.927-0.007,18.32-3.496,18.373-11.885c0.054-8.544-5.372-12.076-18.57-12.087
	c-1.441-0.001-2.883,0-4.717,0c2.724-27.34,12.641-51.175,30.223-72.606c2.613,2.818,4.845,5.478,7.339,7.863
	c5.395,5.161,12.685,5.207,17.496,0.277c4.718-4.833,4.631-11.933-0.371-17.215C144.693,126.021,142.061,123.752,139.177,121.026z
	 M242.408,222.339c1.358-1.42,2.338-2.483,3.359-3.505c11.676-11.691,23.338-23.396,35.052-35.051
	c3.674-3.657,5.536-7.833,3.979-12.984c-2.808-9.287-13.482-11.572-20.771-4.346c-15.236,15.104-30.369,30.312-45.529,45.492
	c-7.171,7.18-7.124,13.383,0.139,20.653c14.786,14.8,29.582,29.592,44.384,44.375c1.034,1.033,2.071,2.104,3.261,2.934
	c4.074,2.835,8.413,3.199,12.783,0.788c4.201-2.318,6.836-6.079,6.035-10.787c-0.561-3.294-2.234-6.924-4.542-9.311
	C268.149,247.77,255.388,235.283,242.408,222.339z"/>
<path fill-rule="evenodd" clip-rule="evenodd" fill="#F04A23" d="M242.408,222.339c12.979,12.943,25.741,25.43,38.148,38.259
	c2.308,2.386,3.981,6.016,4.542,9.311c0.802,4.708-1.833,8.468-6.035,10.787c-4.37,2.412-8.708,2.048-12.783-0.788
	c-1.19-0.83-2.227-1.9-3.261-2.934c-14.803-14.784-29.598-29.575-44.384-44.375c-7.263-7.27-7.31-13.473-0.139-20.653
	c15.161-15.18,30.293-30.388,45.529-45.492c7.29-7.226,17.964-4.941,20.771,4.346c1.557,5.151-0.304,9.327-3.979,12.984
	c-11.714,11.654-23.376,23.36-35.052,35.051C244.746,219.856,243.767,220.919,242.408,222.339z"/>
</svg>
